<?xml version="1.0" encoding="UTF-8"?>
<!DOCTYPE svg PUBLIC "-//W3C//DTD SVG 1.1//EN" "http://www.w3.org/Graphics/SVG/1.1/DTD/svg11.dtd">
<svg xmlns="http://www.w3.org/2000/svg" version="1.1" width="500px" height="500px" style="shape-rendering:geometricPrecision; text-rendering:geometricPrecision; image-rendering:optimizeQuality; fill-rule:evenodd; clip-rule:evenodd" xmlns:xlink="http://www.w3.org/1999/xlink">
<g><path style="opacity:0.529" fill="#e4cb7e" d="M 248.5,141.5 C 247.475,141.103 247.308,140.437 248,139.5C 248.464,140.094 248.631,140.761 248.5,141.5 Z"/></g>
<g><path style="opacity:0.673" fill="#c7000a" d="M 150.5,142.5 C 151.833,142.5 153.167,142.5 154.5,142.5C 154.281,143.675 154.614,144.675 155.5,145.5C 157.225,146.015 158.892,146.682 160.5,147.5C 159.294,150.079 157.961,152.579 156.5,155C 158.134,155.494 159.801,155.66 161.5,155.5C 161.5,156.5 161.5,157.5 161.5,158.5C 159.167,158.5 156.833,158.5 154.5,158.5C 154.5,159.5 154.5,160.5 154.5,161.5C 163.833,162.167 163.833,162.833 154.5,163.5C 154.666,167.514 154.499,171.514 154,175.5C 153.311,176.357 152.478,177.023 151.5,177.5C 150.507,172.88 150.173,168.214 150.5,163.5C 139.833,162.833 139.833,162.167 150.5,161.5C 150.5,160.5 150.5,159.5 150.5,158.5C 148.167,158.5 145.833,158.5 143.5,158.5C 143.5,157.5 143.5,156.5 143.5,155.5C 144.833,155.5 146.167,155.5 147.5,155.5C 147.494,152.482 146.494,149.816 144.5,147.5C 146.304,146.232 148.304,145.565 150.5,145.5C 150.5,144.5 150.5,143.5 150.5,142.5 Z M 146.5,149.5 C 149.024,148.2 151.691,148.2 154.5,149.5C 153.563,153.417 152.23,153.917 150.5,151C 149.255,150.209 147.922,149.709 146.5,149.5 Z"/></g>
<g><path style="opacity:0.749" fill="#c7000a" d="M 162.5,145.5 C 166.514,145.334 170.514,145.501 174.5,146C 174.957,146.414 175.291,146.914 175.5,147.5C 172.572,148.484 169.572,148.817 166.5,148.5C 166.5,150.5 166.5,152.5 166.5,154.5C 169.572,154.183 172.572,154.516 175.5,155.5C 175.192,156.308 174.692,156.975 174,157.5C 173.667,163.5 173.333,169.5 173,175.5C 172.311,176.357 171.478,177.023 170.5,177.5C 169.503,170.866 169.17,164.2 169.5,157.5C 168.5,157.5 167.5,157.5 166.5,157.5C 166.665,161.182 166.499,164.848 166,168.5C 165.133,172.867 162.633,175.867 158.5,177.5C 157.509,173.555 157.176,169.555 157.5,165.5C 158.5,165.5 159.5,165.5 160.5,165.5C 160.338,167.527 160.505,169.527 161,171.5C 162.41,162.916 162.91,154.25 162.5,145.5 Z"/></g>
<g><path style="opacity:0.831" fill="#c7000a" d="M 144.5,165.5 C 145.5,165.5 146.5,165.5 147.5,165.5C 147.664,168.187 147.497,170.854 147,173.5C 146.586,173.957 146.086,174.291 145.5,174.5C 144.516,171.572 144.183,168.572 144.5,165.5 Z"/></g>
<g><path style="opacity:0.929" fill="#dfc36a" d="M 248.5,141.5 C 250.088,143.527 250.588,145.861 250,148.5C 248.12,150.953 245.787,152.953 243,154.5C 241.847,157.711 241.18,161.044 241,164.5C 238.333,167.833 235.667,171.167 233,174.5C 231.482,176.813 231.316,179.146 232.5,181.5C 232.167,181.5 231.833,181.5 231.5,181.5C 230.351,181.791 229.684,182.624 229.5,184C 230.483,187.112 231.15,190.278 231.5,193.5C 231.164,199.503 233.164,204.503 237.5,208.5C 238.869,206.876 240.536,206.376 242.5,207C 244.617,208.731 246.117,210.898 247,213.5C 247.232,212.263 247.732,211.263 248.5,210.5C 248.5,211.5 248.5,212.5 248.5,213.5C 248.5,214.167 248.5,214.833 248.5,215.5C 248.557,216.609 248.89,217.609 249.5,218.5C 246.383,216.857 244.55,214.191 244,210.5C 242.721,208.063 241.221,207.563 239.5,209C 239.854,210.626 239.854,212.459 239.5,214.5C 237.956,211.443 235.789,208.776 233,206.5C 229.405,196.481 228.072,186.148 229,175.5C 230.817,170.674 233.817,166.674 238,163.5C 238.26,159.75 238.927,156.084 240,152.5C 245.329,150.681 248.162,147.014 248.5,141.5 Z"/></g>
<g><path style="opacity:1" fill="#d4ae38" d="M 275.5,162.5 C 275.257,166.496 274.924,167.496 274.5,165.5C 274.5,163.833 274.5,162.167 274.5,160.5C 274.5,159.833 274.5,159.167 274.5,158.5C 275.614,157.115 276.614,155.615 277.5,154C 275.893,154.019 274.226,154.185 272.5,154.5C 274.297,153.607 275.63,152.274 276.5,150.5C 266.539,148.225 259.039,151.892 254,161.5C 253.294,163.971 253.627,166.305 255,168.5C 255.791,167.255 256.291,165.922 256.5,164.5C 258.371,164.859 259.871,165.859 261,167.5C 262.57,167.33 264.403,166.997 266.5,166.5C 267.833,166.5 269.167,166.5 270.5,166.5C 268.833,167.167 267.167,167.833 265.5,168.5C 264.761,168.369 264.094,168.536 263.5,169C 265.527,170.396 265.86,172.062 264.5,174C 262.527,174.495 260.527,174.662 258.5,174.5C 260.487,178.54 259.487,181.54 255.5,183.5C 254.813,181.445 253.646,179.779 252,178.5C 252.107,175.443 250.94,173.109 248.5,171.5C 246.032,172.803 243.699,174.303 241.5,176C 243.155,177.444 243.822,179.278 243.5,181.5C 241.156,183.711 238.49,184.045 235.5,182.5C 234.081,183.005 233.415,184.005 233.5,185.5C 232.326,184.486 231.66,183.153 231.5,181.5C 231.833,181.5 232.167,181.5 232.5,181.5C 236.763,176.008 242.597,171.675 250,168.5C 252.997,155.424 260.997,147.758 274,145.5C 275.351,147.019 276.851,148.352 278.5,149.5C 279.52,151.432 279.687,153.432 279,155.5C 277.121,157.527 275.954,159.86 275.5,162.5 Z"/></g>
<g><path style="opacity:1" fill="#e4ce83" d="M 274.5,158.5 C 274.5,159.167 274.5,159.833 274.5,160.5C 273.262,159.588 271.928,159.421 270.5,160C 271.167,160.333 271.833,160.667 272.5,161C 268.762,160.179 265.429,161.179 262.5,164C 263.449,164.617 264.282,164.451 265,163.5C 265.513,164.527 266.013,165.527 266.5,166.5C 264.403,166.997 262.57,167.33 261,167.5C 259.871,165.859 258.371,164.859 256.5,164.5C 257.827,162.195 259.661,159.861 262,157.5C 262.5,158 263,158.5 263.5,159C 261.993,159.837 261.493,161.004 262,162.5C 264.087,161.206 266.254,160.039 268.5,159C 267.304,158.346 267.304,157.846 268.5,157.5C 270.409,158.348 272.409,158.682 274.5,158.5 Z"/></g>
<g><path style="opacity:1" fill="#efe0b2" d="M 274.5,160.5 C 274.5,162.167 274.5,163.833 274.5,165.5C 272.901,165.232 271.568,165.566 270.5,166.5C 269.167,166.5 267.833,166.5 266.5,166.5C 266.013,165.527 265.513,164.527 265,163.5C 264.282,164.451 263.449,164.617 262.5,164C 265.429,161.179 268.762,160.179 272.5,161C 271.833,160.667 271.167,160.333 270.5,160C 271.928,159.421 273.262,159.588 274.5,160.5 Z"/></g>
<g><path style="opacity:1" fill="#efdeae" d="M 276.5,150.5 C 273.07,151.714 269.736,153.214 266.5,155C 268.488,155.18 270.488,155.014 272.5,154.5C 274.226,154.185 275.893,154.019 277.5,154C 276.614,155.615 275.614,157.115 274.5,158.5C 272.409,158.682 270.409,158.348 268.5,157.5C 267.304,157.846 267.304,158.346 268.5,159C 266.254,160.039 264.087,161.206 262,162.5C 261.493,161.004 261.993,159.837 263.5,159C 263,158.5 262.5,158 262,157.5C 259.661,159.861 257.827,162.195 256.5,164.5C 256.291,165.922 255.791,167.255 255,168.5C 253.627,166.305 253.294,163.971 254,161.5C 259.039,151.892 266.539,148.225 276.5,150.5 Z"/></g>
<g><path style="opacity:1" fill="#fefdfb" d="M 276.5,150.5 C 275.63,152.274 274.297,153.607 272.5,154.5C 270.488,155.014 268.488,155.18 266.5,155C 269.736,153.214 273.07,151.714 276.5,150.5 Z"/></g>
<g><path style="opacity:0.682" fill="#e2c774" d="M 275.5,162.5 C 276.451,163.919 276.784,165.585 276.5,167.5C 279.781,167.42 282.781,168.087 285.5,169.5C 284.833,169.833 284.167,170.167 283.5,170.5C 282.391,169.71 281.058,169.21 279.5,169C 274.845,168.501 270.179,168.334 265.5,168.5C 267.167,167.833 268.833,167.167 270.5,166.5C 271.568,165.566 272.901,165.232 274.5,165.5C 274.924,167.496 275.257,166.496 275.5,162.5 Z"/></g>
<g><path style="opacity:1" fill="#fdfbf6" d="M 265.5,168.5 C 270.179,168.334 274.845,168.501 279.5,169C 281.058,169.21 282.391,169.71 283.5,170.5C 281.896,171.287 281.229,172.62 281.5,174.5C 286.659,175.8 291.992,176.633 297.5,177C 309.731,184.71 318.231,195.21 323,208.5C 321.49,206.792 319.99,205.126 318.5,203.5C 317.932,197.442 314.599,194.942 308.5,196C 306.884,195.385 305.551,194.385 304.5,193C 300.169,194.812 295.502,195.979 290.5,196.5C 288.883,197.038 287.216,197.371 285.5,197.5C 284.053,196.378 283.053,194.878 282.5,193C 280.415,192.471 278.582,192.971 277,194.5C 274.447,193.777 272.28,192.444 270.5,190.5C 269.287,193.28 267.787,195.946 266,198.5C 265.743,202.377 264.743,206.043 263,209.5C 261.989,210.337 260.822,210.67 259.5,210.5C 258.811,207.647 256.978,205.981 254,205.5C 251.022,205.981 249.189,207.647 248.5,210.5C 247.732,211.263 247.232,212.263 247,213.5C 246.117,210.898 244.617,208.731 242.5,207C 240.536,206.376 238.869,206.876 237.5,208.5C 233.164,204.503 231.164,199.503 231.5,193.5C 231.833,193.5 232.167,193.5 232.5,193.5C 236.855,194.728 238.688,193.062 238,188.5C 236.955,187.627 236.122,186.627 235.5,185.5C 242.185,186.98 245.352,184.313 245,177.5C 244.79,179.058 244.29,180.391 243.5,181.5C 243.822,179.278 243.155,177.444 241.5,176C 243.699,174.303 246.032,172.803 248.5,171.5C 250.94,173.109 252.107,175.443 252,178.5C 253.646,179.779 254.813,181.445 255.5,183.5C 259.487,181.54 260.487,178.54 258.5,174.5C 260.527,174.662 262.527,174.495 264.5,174C 265.86,172.062 265.527,170.396 263.5,169C 264.094,168.536 264.761,168.369 265.5,168.5 Z"/></g>
<g><path style="opacity:1" fill="#d4af3a" d="M 268.5,169.5 C 272.315,169.93 275.981,170.763 279.5,172C 274.642,175.701 270.975,174.867 268.5,169.5 Z"/></g>
<g><path style="opacity:1" fill="#e6d089" d="M 302.5,171.5 C 305.187,171.336 307.854,171.503 310.5,172C 311.381,172.708 312.047,173.542 312.5,174.5C 311.833,174.5 311.5,174.833 311.5,175.5C 309.841,172.705 308.008,172.372 306,174.5C 302.243,173.018 301.743,173.684 304.5,176.5C 305.396,175.494 306.062,175.494 306.5,176.5C 306.145,177.522 305.478,178.189 304.5,178.5C 299.75,176.29 295.084,173.79 290.5,171C 292.364,169.594 294.197,169.094 296,169.5C 297.897,171.905 300.064,172.572 302.5,171.5 Z"/></g>
<g><path style="opacity:1" fill="#daba55" d="M 275.5,176.5 C 276.946,175.387 278.613,175.22 280.5,176C 283.409,176.85 286.076,178.017 288.5,179.5C 286.955,178.42 285.455,178.42 284,179.5C 281.41,177.727 278.577,176.727 275.5,176.5 Z"/></g>
<g><path style="opacity:0.63" fill="#c7000a" d="M 156.5,179.5 C 158.167,179.5 159.833,179.5 161.5,179.5C 161.5,180.833 161.5,182.167 161.5,183.5C 166.179,183.334 170.845,183.501 175.5,184C 175.957,184.414 176.291,184.914 176.5,185.5C 171.5,186.167 166.5,186.833 161.5,187.5C 165.465,188.367 169.465,188.367 173.5,187.5C 173.666,194.841 173.5,202.174 173,209.5C 172.411,211.863 170.911,212.863 168.5,212.5C 168.5,209.833 168.5,207.167 168.5,204.5C 165.833,204.5 163.167,204.5 160.5,204.5C 160.663,206.857 160.497,209.19 160,211.5C 158.989,212.337 157.822,212.67 156.5,212.5C 156.5,209.833 156.5,207.167 156.5,204.5C 154.167,204.5 151.833,204.5 149.5,204.5C 149.5,203.5 149.5,202.5 149.5,201.5C 157.965,201.37 158.299,200.37 150.5,198.5C 151.376,197.749 152.376,197.249 153.5,197C 152.36,195.027 151.027,193.193 149.5,191.5C 148.503,198.468 148.17,205.468 148.5,212.5C 146.876,212.64 145.71,211.973 145,210.5C 144.5,202.841 144.334,195.174 144.5,187.5C 148.521,188.505 152.521,188.505 156.5,187.5C 151.544,186.506 146.544,186.173 141.5,186.5C 141.5,185.5 141.5,184.5 141.5,183.5C 146.5,183.5 151.5,183.5 156.5,183.5C 156.5,182.167 156.5,180.833 156.5,179.5 Z M 151.5,192.5 C 156.975,191.511 162.642,191.178 168.5,191.5C 168.665,195.182 168.499,198.848 168,202.5C 165.527,201.88 163.027,201.214 160.5,200.5C 162.833,199.833 165.167,199.167 167.5,198.5C 166.624,197.749 165.624,197.249 164.5,197C 169.145,192.997 168.478,191.663 162.5,193C 160.519,198.198 158.186,198.531 155.5,194C 154.255,193.209 152.922,192.709 151.5,192.5 Z"/></g>
<g><path style="opacity:1" fill="#d5b03b" d="M 271.5,176.5 C 269.345,176.372 267.345,176.872 265.5,178C 263.833,180.333 262.167,182.667 260.5,185C 262.221,186.437 263.721,185.937 265,183.5C 266.333,184.833 267.667,184.833 269,183.5C 269.464,184.094 269.631,184.761 269.5,185.5C 265.221,186.878 260.888,187.711 256.5,188C 259.415,184.172 262.081,180.172 264.5,176C 267.086,173.934 269.419,174.1 271.5,176.5 Z"/></g>
<g><path style="opacity:1" fill="#ecdba5" d="M 235.5,185.5 C 234.833,185.5 234.167,185.5 233.5,185.5C 233.415,184.005 234.081,183.005 235.5,182.5C 238.49,184.045 241.156,183.711 243.5,181.5C 244.29,180.391 244.79,179.058 245,177.5C 245.352,184.313 242.185,186.98 235.5,185.5 Z"/></g>
<g><path style="opacity:1" fill="#efe0b1" d="M 271.5,176.5 C 272.833,176.5 274.167,176.5 275.5,176.5C 278.577,176.727 281.41,177.727 284,179.5C 285.455,178.42 286.955,178.42 288.5,179.5C 289.5,179.5 290.5,179.5 291.5,179.5C 291.393,181.379 291.893,181.712 293,180.5C 294.518,181.163 295.685,182.163 296.5,183.5C 291.892,183.803 287.392,183.803 283,183.5C 280.729,181.566 278.729,181.566 277,183.5C 276.667,183.167 276.333,182.833 276,182.5C 273.717,182.97 272.217,183.637 271.5,184.5C 271.158,185.338 270.492,185.672 269.5,185.5C 269.631,184.761 269.464,184.094 269,183.5C 267.667,184.833 266.333,184.833 265,183.5C 263.721,185.937 262.221,186.437 260.5,185C 262.167,182.667 263.833,180.333 265.5,178C 267.345,176.872 269.345,176.372 271.5,176.5 Z"/></g>
<g><path style="opacity:1" fill="#d6b241" d="M 291.5,179.5 C 293.199,179.34 294.866,179.506 296.5,180C 298.724,181.781 301.058,183.281 303.5,184.5C 301.05,184.702 298.717,184.369 296.5,183.5C 295.685,182.163 294.518,181.163 293,180.5C 291.893,181.712 291.393,181.379 291.5,179.5 Z"/></g>
<g><path style="opacity:1" fill="#f2e7c3" d="M 231.5,181.5 C 231.66,183.153 232.326,184.486 233.5,185.5C 235.002,187.175 236.335,189.008 237.5,191C 235.677,190.973 234.01,191.807 232.5,193.5C 232.167,193.5 231.833,193.5 231.5,193.5C 231.15,190.278 230.483,187.112 229.5,184C 229.684,182.624 230.351,181.791 231.5,181.5 Z"/></g>
<g><path style="opacity:1" fill="#e6ce86" d="M 296.5,183.5 C 298.717,184.369 301.05,184.702 303.5,184.5C 305.5,185.833 307.167,187.5 308.5,189.5C 307.778,189.918 307.278,190.584 307,191.5C 304.079,189.288 300.912,187.455 297.5,186C 296.748,185.329 296.414,184.496 296.5,183.5 Z"/></g>
<g><path style="opacity:1" fill="#d5b03d" d="M 282.5,185.5 C 284.429,185.231 286.095,185.731 287.5,187C 285.167,188 282.833,189 280.5,190C 277.534,190.895 274.867,190.395 272.5,188.5C 276.121,187.987 279.454,186.987 282.5,185.5 Z"/></g>
<g><path style="opacity:1" fill="#eedeae" d="M 311.5,175.5 C 311.297,177.39 311.963,178.89 313.5,180C 316,180.885 318.333,182.052 320.5,183.5C 319.017,186.411 319.35,189.078 321.5,191.5C 320.833,192.833 319.833,193.833 318.5,194.5C 314.454,188.463 309.454,183.296 303.5,179C 303.728,178.601 304.062,178.435 304.5,178.5C 305.478,178.189 306.145,177.522 306.5,176.5C 306.062,175.494 305.396,175.494 304.5,176.5C 301.743,173.684 302.243,173.018 306,174.5C 308.008,172.372 309.841,172.705 311.5,175.5 Z"/></g>
<g><path style="opacity:1" fill="#d2ab2e" d="M 260.5,189.5 C 263.59,188.83 265.257,189.997 265.5,193C 265.532,194.971 264.698,196.471 263,197.5C 263.053,199.936 262.887,202.269 262.5,204.5C 261.914,204.291 261.414,203.957 261,203.5C 260.667,201.5 260.333,199.5 260,197.5C 257.957,195.288 255.791,193.288 253.5,191.5C 255.343,191.245 257.343,191.078 259.5,191C 260.056,190.617 260.389,190.117 260.5,189.5 Z"/></g>
<g><path style="opacity:1" fill="#d5b03d" d="M 290.5,189.5 C 292.527,189.338 294.527,189.505 296.5,190C 296.957,190.414 297.291,190.914 297.5,191.5C 293.806,193.508 289.806,194.508 285.5,194.5C 285.351,193.448 285.517,192.448 286,191.5C 287.622,190.901 289.122,190.234 290.5,189.5 Z"/></g>
<g><path style="opacity:1" fill="#d7b343" d="M 296.5,183.5 C 296.414,184.496 296.748,185.329 297.5,186C 300.912,187.455 304.079,189.288 307,191.5C 307.278,190.584 307.778,189.918 308.5,189.5C 309.029,191.583 310.029,193.417 311.5,195C 306.343,192.422 301.01,189.755 295.5,187C 287.651,184.842 279.651,184.009 271.5,184.5C 272.217,183.637 273.717,182.97 276,182.5C 276.333,182.833 276.667,183.167 277,183.5C 278.729,181.566 280.729,181.566 283,183.5C 287.392,183.803 291.892,183.803 296.5,183.5 Z"/></g>
<g><path style="opacity:1" fill="#d1aa2d" d="M 285.5,197.5 C 284.9,198.9 283.9,199.9 282.5,200.5C 281.791,201.404 280.791,201.737 279.5,201.5C 274.067,205.32 274.734,206.486 281.5,205C 280.695,206.113 280.028,207.279 279.5,208.5C 277.874,206.757 275.874,206.257 273.5,207C 275.066,207.608 276.4,208.442 277.5,209.5C 276.761,209.369 276.094,209.536 275.5,210C 275.116,210.951 274.783,211.784 274.5,212.5C 272.918,211.124 271.085,210.124 269,209.5C 262.648,213.229 255.815,215.229 248.5,215.5C 248.5,214.833 248.5,214.167 248.5,213.5C 250.919,207.783 254.419,207.116 259,211.5C 259.399,211.272 259.565,210.938 259.5,210.5C 260.822,210.67 261.989,210.337 263,209.5C 264.743,206.043 265.743,202.377 266,198.5C 267.787,195.946 269.287,193.28 270.5,190.5C 272.28,192.444 274.447,193.777 277,194.5C 278.582,192.971 280.415,192.471 282.5,193C 283.053,194.878 284.053,196.378 285.5,197.5 Z"/></g>
<g><path style="opacity:1" fill="#dfc267" d="M 233.5,185.5 C 234.167,185.5 234.833,185.5 235.5,185.5C 236.122,186.627 236.955,187.627 238,188.5C 238.688,193.062 236.855,194.728 232.5,193.5C 234.01,191.807 235.677,190.973 237.5,191C 236.335,189.008 235.002,187.175 233.5,185.5 Z"/></g>
<g><path style="opacity:1" fill="#d5b13e" d="M 302.5,171.5 C 300.064,172.572 297.897,171.905 296,169.5C 294.197,169.094 292.364,169.594 290.5,171C 295.084,173.79 299.75,176.29 304.5,178.5C 304.062,178.435 303.728,178.601 303.5,179C 309.454,183.296 314.454,188.463 318.5,194.5C 319.833,193.833 320.833,192.833 321.5,191.5C 319.35,189.078 319.017,186.411 320.5,183.5C 318.333,182.052 316,180.885 313.5,180C 311.963,178.89 311.297,177.39 311.5,175.5C 311.5,174.833 311.833,174.5 312.5,174.5C 314.636,178.124 317.803,180.457 322,181.5C 322.395,183.179 322.228,184.845 321.5,186.5C 324.698,190.538 324.031,193.705 319.5,196C 323.188,202.727 326.688,209.561 330,216.5C 331.873,218.709 334.04,220.542 336.5,222C 343.767,223.119 350.767,225.119 357.5,228C 360.265,230.596 361.932,233.763 362.5,237.5C 361.883,237.611 361.383,237.944 361,238.5C 359.656,235.135 357.823,232.135 355.5,229.5C 349.136,226.238 342.469,224.905 335.5,225.5C 331.077,220.188 330.743,220.355 334.5,226C 331.524,226.757 329.691,225.591 329,222.5C 328.495,224.518 327.995,226.518 327.5,228.5C 327.5,228.833 327.5,229.167 327.5,229.5C 327.5,232.833 327.5,236.167 327.5,239.5C 327.737,240.791 327.404,241.791 326.5,242.5C 325.712,239.904 325.046,237.237 324.5,234.5C 328.176,225.064 327.01,216.397 321,208.5C 319.938,207.101 318.605,206.101 317,205.5C 315.63,207.203 313.964,208.536 312,209.5C 309.845,208.756 307.845,207.756 306,206.5C 303.95,207.791 301.783,208.291 299.5,208C 297.524,204.537 295.19,201.37 292.5,198.5C 291.833,197.833 291.167,197.167 290.5,196.5C 295.502,195.979 300.169,194.812 304.5,193C 305.551,194.385 306.884,195.385 308.5,196C 314.599,194.942 317.932,197.442 318.5,203.5C 319.99,205.126 321.49,206.792 323,208.5C 318.231,195.21 309.731,184.71 297.5,177C 291.992,176.633 286.659,175.8 281.5,174.5C 281.229,172.62 281.896,171.287 283.5,170.5C 284.167,170.167 284.833,169.833 285.5,169.5C 288.722,169.15 291.888,168.483 295,167.5C 298.059,167.944 300.559,169.277 302.5,171.5 Z"/></g>
<g><path style="opacity:1" fill="#ead79a" d="M 295.5,198.5 C 301.905,196.891 307.739,198.224 313,202.5C 313.82,204.728 313.487,206.728 312,208.5C 309.942,206.932 307.775,205.598 305.5,204.5C 303.945,204.722 302.611,205.389 301.5,206.5C 299.479,203.765 297.479,201.099 295.5,198.5 Z"/></g>
<g><path style="opacity:1" fill="#e3c97a" d="M 238.5,203.5 C 242.009,204.153 241.676,205.153 237.5,206.5C 237.167,206.167 236.833,205.833 236.5,205.5C 237.243,204.818 237.909,204.151 238.5,203.5 Z"/></g>
<g><path style="opacity:1" fill="#e6d089" d="M 279.5,201.5 C 281.877,202.887 284.543,203.721 287.5,204C 285.956,204.29 284.623,204.956 283.5,206C 284.167,206.333 284.833,206.667 285.5,207C 284,207.833 282.833,209 282,210.5C 281.292,209.619 280.458,208.953 279.5,208.5C 280.028,207.279 280.695,206.113 281.5,205C 274.734,206.486 274.067,205.32 279.5,201.5 Z"/></g>
<g><path style="opacity:1" fill="#eddca8" d="M 259.5,210.5 C 259.565,210.938 259.399,211.272 259,211.5C 254.419,207.116 250.919,207.783 248.5,213.5C 248.5,212.5 248.5,211.5 248.5,210.5C 249.189,207.647 251.022,205.981 254,205.5C 256.978,205.981 258.811,207.647 259.5,210.5 Z"/></g>
<g><path style="opacity:1" fill="#dececc" d="M 210.5,210.5 C 209.442,211.6 208.608,212.934 208,214.5C 207.444,212.405 206.944,212.238 206.5,214C 207.536,217.121 207.703,220.287 207,223.5C 206.452,219.83 205.952,216.163 205.5,212.5C 207.117,209.048 209.617,206.381 213,204.5C 212.549,206.52 211.716,208.52 210.5,210.5 Z"/></g>
<g><path style="opacity:1" fill="#faf7f7" d="M 213.5,218.5 C 215.616,223.669 216.783,229.002 217,234.5C 216.33,231.826 215.163,229.493 213.5,227.5C 213.279,224.933 212.612,222.599 211.5,220.5C 211.5,218.167 211.5,215.833 211.5,213.5C 212.167,213.5 212.5,213.167 212.5,212.5C 213.632,212.897 213.965,214.897 213.5,218.5 Z"/></g>
<g><path style="opacity:1" fill="#f3e8c6" d="M 249.5,218.5 C 249.918,219.222 250.584,219.722 251.5,220C 246.805,219.834 242.805,218.001 239.5,214.5C 239.854,212.459 239.854,210.626 239.5,209C 241.221,207.563 242.721,208.063 244,210.5C 244.55,214.191 246.383,216.857 249.5,218.5 Z"/></g>
<g><path style="opacity:1" fill="#dbbb57" d="M 290.5,196.5 C 291.167,197.167 291.833,197.833 292.5,198.5C 290.345,198.372 288.345,198.872 286.5,200C 289.412,201.373 292.246,202.873 295,204.5C 296.197,207.089 297.197,209.756 298,212.5C 300.043,214.208 301.71,216.208 303,218.5C 303.749,219.635 303.583,220.635 302.5,221.5C 294.524,224.584 286.857,224.084 279.5,220C 277.611,217.618 275.945,215.118 274.5,212.5C 274.783,211.784 275.116,210.951 275.5,210C 276.094,209.536 276.761,209.369 277.5,209.5C 278.517,211.599 279.85,212.599 281.5,212.5C 280.406,214.836 279.073,214.836 277.5,212.5C 277.446,216.293 279.446,218.96 283.5,220.5C 284.739,220.058 285.739,219.391 286.5,218.5C 287.167,218.5 287.833,218.5 288.5,218.5C 287.537,219.363 287.537,220.03 288.5,220.5C 292.094,219.574 295.76,219.241 299.5,219.5C 300.078,220.547 300.744,220.38 301.5,219C 300.364,217.855 299.364,216.688 298.5,215.5C 296.586,214.815 294.586,214.315 292.5,214C 294.343,213.841 295.009,213.341 294.5,212.5C 294.477,210.073 293.977,207.74 293,205.5C 288.283,203.585 284.783,201.918 282.5,200.5C 283.9,199.9 284.9,198.9 285.5,197.5C 287.216,197.371 288.883,197.038 290.5,196.5 Z"/></g>
<g><path style="opacity:1" fill="#eeddab" d="M 282.5,200.5 C 284.783,201.918 288.283,203.585 293,205.5C 293.977,207.74 294.477,210.073 294.5,212.5C 292.436,212.687 290.436,213.187 288.5,214C 289.167,214.333 289.833,214.667 290.5,215C 288.907,215.949 287.574,217.115 286.5,218.5C 285.739,219.391 284.739,220.058 283.5,220.5C 279.446,218.96 277.446,216.293 277.5,212.5C 279.073,214.836 280.406,214.836 281.5,212.5C 279.85,212.599 278.517,211.599 277.5,209.5C 276.4,208.442 275.066,207.608 273.5,207C 275.874,206.257 277.874,206.757 279.5,208.5C 280.458,208.953 281.292,209.619 282,210.5C 282.833,209 284,207.833 285.5,207C 284.833,206.667 284.167,206.333 283.5,206C 284.623,204.956 285.956,204.29 287.5,204C 284.543,203.721 281.877,202.887 279.5,201.5C 280.791,201.737 281.791,201.404 282.5,200.5 Z"/></g>
<g><path style="opacity:1" fill="#f5ecd0" d="M 294.5,212.5 C 295.009,213.341 294.343,213.841 292.5,214C 294.586,214.315 296.586,214.815 298.5,215.5C 296.724,215.794 294.724,215.96 292.5,216C 290.934,216.608 289.6,217.442 288.5,218.5C 287.833,218.5 287.167,218.5 286.5,218.5C 287.574,217.115 288.907,215.949 290.5,215C 289.833,214.667 289.167,214.333 288.5,214C 290.436,213.187 292.436,212.687 294.5,212.5 Z"/></g>
<g><path style="opacity:1" fill="#e6d18d" d="M 298.5,215.5 C 299.364,216.688 300.364,217.855 301.5,219C 300.744,220.38 300.078,220.547 299.5,219.5C 298.223,218.102 296.557,217.436 294.5,217.5C 292.488,217.84 290.488,218.173 288.5,218.5C 289.6,217.442 290.934,216.608 292.5,216C 294.724,215.96 296.724,215.794 298.5,215.5 Z"/></g>
<g><path style="opacity:0.644" fill="#c7000a" d="M 143.5,216.5 C 153.832,217.039 164.165,217.705 174.5,218.5C 169.833,219.167 165.167,219.833 160.5,220.5C 160.023,221.478 159.357,222.311 158.5,223C 162.152,223.499 165.818,223.665 169.5,223.5C 169.5,224.5 169.5,225.5 169.5,226.5C 166.396,225.971 164.063,226.971 162.5,229.5C 166.107,230.489 169.774,230.823 173.5,230.5C 173.5,231.5 173.5,232.5 173.5,233.5C 169.486,233.334 165.486,233.501 161.5,234C 165.955,235.437 169.622,238.104 172.5,242C 171.07,243.44 169.403,243.774 167.5,243C 166.024,240.357 164.024,238.19 161.5,236.5C 159.281,239.882 156.281,242.382 152.5,244C 159.856,244.169 167.189,244.669 174.5,245.5C 164.151,246.238 153.818,246.905 143.5,247.5C 143.5,237.167 143.5,226.833 143.5,216.5 Z M 148.5,219.5 C 150.604,219.201 152.604,219.534 154.5,220.5C 153.169,223.834 151.335,226.834 149,229.5C 148.502,226.183 148.335,222.85 148.5,219.5 Z M 155.5,226.5 C 158.523,226.105 159.523,227.105 158.5,229.5C 152.555,231.444 151.555,230.444 155.5,226.5 Z M 148.5,243.5 C 148.5,240.167 148.5,236.833 148.5,233.5C 151.518,233.335 154.518,233.502 157.5,234C 155.674,238.325 152.674,241.492 148.5,243.5 Z"/></g>
<g><path style="opacity:1" fill="#915954" d="M 211.5,213.5 C 211.5,215.833 211.5,218.167 211.5,220.5C 210.784,218.444 210.117,216.277 209.5,214C 210.094,213.536 210.761,213.369 211.5,213.5 Z"/></g>
<g><path style="opacity:1" fill="#f3e9c9" d="M 299.5,219.5 C 295.76,219.241 292.094,219.574 288.5,220.5C 287.537,220.03 287.537,219.363 288.5,218.5C 290.488,218.173 292.488,217.84 294.5,217.5C 296.557,217.436 298.223,218.102 299.5,219.5 Z"/></g>
<g><path style="opacity:1" fill="#b6918d" d="M 210.5,210.5 C 210.5,211.833 211.167,212.5 212.5,212.5C 212.5,213.167 212.167,213.5 211.5,213.5C 210.761,213.369 210.094,213.536 209.5,214C 210.117,216.277 210.784,218.444 211.5,220.5C 212.612,222.599 213.279,224.933 213.5,227.5C 215.163,229.493 216.33,231.826 217,234.5C 216.783,229.002 215.616,223.669 213.5,218.5C 213.833,218.5 214.167,218.5 214.5,218.5C 217.199,224.592 218.866,230.925 219.5,237.5C 218.94,239.801 218.44,242.134 218,244.5C 217.261,241.898 215.595,240.231 213,239.5C 212.493,240.996 212.993,242.163 214.5,243C 212.588,243.279 211.254,242.446 210.5,240.5C 210.249,238.83 209.582,237.33 208.5,236C 209.056,235.617 209.389,235.117 209.5,234.5C 210.794,235.29 211.961,236.29 213,237.5C 213.667,236.833 213.667,236.167 213,235.5C 210.271,232.601 207.438,229.934 204.5,227.5C 205.376,227.631 206.043,227.298 206.5,226.5C 205.469,225.3 204.635,223.966 204,222.5C 202.708,223.791 201.542,223.791 200.5,222.5C 200.5,222.167 200.5,221.833 200.5,221.5C 201.374,218.465 202.374,215.465 203.5,212.5C 203.369,213.239 203.536,213.906 204,214.5C 204.278,213.584 204.778,212.918 205.5,212.5C 205.952,216.163 206.452,219.83 207,223.5C 207.703,220.287 207.536,217.121 206.5,214C 206.944,212.238 207.444,212.405 208,214.5C 208.608,212.934 209.442,211.6 210.5,210.5 Z"/></g>
<g><path style="opacity:1" fill="#e2c875" d="M 239.5,214.5 C 242.805,218.001 246.805,219.834 251.5,220C 250.584,219.722 249.918,219.222 249.5,218.5C 257.891,215.797 264.224,218.297 268.5,226C 273.5,226.333 278.5,226.667 283.5,227C 287.016,228.256 290.016,230.256 292.5,233C 292.167,233.167 291.833,233.333 291.5,233.5C 285.321,229.538 278.654,228.538 271.5,230.5C 267.112,228.948 263.778,226.115 261.5,222C 256.5,221.667 251.5,221.333 246.5,221C 243.214,219.718 240.88,217.552 239.5,214.5 Z"/></g>
<g><path style="opacity:1" fill="#f7f3f3" d="M 219.5,237.5 C 218.866,230.925 217.199,224.592 214.5,218.5C 214.336,215.813 214.503,213.146 215,210.5C 215.921,215.932 217.255,221.265 219,226.5C 219.499,230.152 219.665,233.818 219.5,237.5 Z"/></g>
<g><path style="opacity:0.122" fill="#c0a29e" d="M 255.5,233.5 C 254.833,232.167 254.833,232.167 255.5,233.5 Z"/></g>
<g><path style="opacity:1" fill="#faf4e4" d="M 327.5,229.5 C 328.167,232.167 328.833,234.833 329.5,237.5C 329.34,235.801 329.506,234.134 330,232.5C 331.885,236.923 333.719,241.256 335.5,245.5C 335.887,250.08 335.053,254.414 333,258.5C 331.923,251.844 330.09,245.511 327.5,239.5C 327.5,236.167 327.5,232.833 327.5,229.5 Z"/></g>
<g><path style="opacity:1" fill="#eddba4" d="M 355.5,229.5 C 356.295,232.423 357.628,235.09 359.5,237.5C 358.332,238.906 358.665,240.072 360.5,241C 356.833,241.333 353.167,241.667 349.5,242C 355.764,242.424 355.93,243.258 350,244.5C 347.616,243.281 345.283,243.281 343,244.5C 341.833,242.667 340.667,240.833 339.5,239C 340.094,238.536 340.761,238.369 341.5,238.5C 344.012,239.928 346.678,240.428 349.5,240C 343.876,238.044 339.043,234.877 335,230.5C 334.601,230.728 334.435,231.062 334.5,231.5C 333.609,230.739 332.942,229.739 332.5,228.5C 332.938,227.494 333.604,227.494 334.5,228.5C 335.386,227.675 335.719,226.675 335.5,225.5C 342.469,224.905 349.136,226.238 355.5,229.5 Z"/></g>
<g><path style="opacity:1" fill="#e3c97a" d="M 329.5,237.5 C 331.236,240.214 332.07,243.214 332,246.5C 330.451,243.688 329.618,240.688 329.5,237.5 Z"/></g>
<g><path style="opacity:1" fill="#ecdaa4" d="M 335.5,245.5 C 333.719,241.256 331.885,236.923 330,232.5C 329.506,234.134 329.34,235.801 329.5,237.5C 328.833,234.833 328.167,232.167 327.5,229.5C 327.5,229.167 327.5,228.833 327.5,228.5C 328.931,228.881 329.764,229.881 330,231.5C 330.333,230.167 330.667,228.833 331,227.5C 331.375,230 332.208,232.333 333.5,234.5C 337.826,238.497 341.16,243.164 343.5,248.5C 342,251.833 340.5,255.167 339,258.5C 337.846,259.743 336.512,260.743 335,261.5C 335.235,258.883 336.068,256.383 337.5,254C 337.088,250.973 336.421,248.14 335.5,245.5 Z"/></g>
<g><path style="opacity:0.608" fill="#b08884" d="M 255.5,233.5 C 262.375,237.395 269.709,238.561 277.5,237C 280.797,239.295 283.797,241.962 286.5,245C 292.864,243.616 298.864,244.616 304.5,248C 316.261,260.05 320.761,274.55 318,291.5C 316.093,295.41 313.427,298.744 310,301.5C 309,305.5 308,309.5 307,313.5C 305.104,315.53 302.937,317.197 300.5,318.5C 299.696,319.941 299.029,321.441 298.5,323C 299.33,324.465 299.496,325.965 299,327.5C 294.67,320.494 296.337,315.494 304,312.5C 305.153,309.289 305.82,305.956 306,302.5C 308.667,299.167 311.333,295.833 314,292.5C 315.518,290.187 315.684,287.854 314.5,285.5C 314.833,285.5 315.167,285.5 315.5,285.5C 316.268,286.263 316.768,287.263 317,288.5C 317.477,283.738 316.977,279.071 315.5,274.5C 308.911,274.058 307.911,276.058 312.5,280.5C 308.425,278.789 307.759,276.289 310.5,273C 311.899,272.405 313.232,272.572 314.5,273.5C 315.848,267.173 314.015,261.839 309,257.5C 307.582,259.363 305.749,259.863 303.5,259C 302.15,257.282 300.983,255.448 300,253.5C 299.768,254.737 299.268,255.737 298.5,256.5C 298.737,255.209 298.404,254.209 297.5,253.5C 298.263,252.732 299.263,252.232 300.5,252C 298.866,251.506 297.199,251.34 295.5,251.5C 296.263,250.732 297.263,250.232 298.5,250C 297.944,249.617 297.611,249.117 297.5,248.5C 293.323,248.33 288.989,248.163 284.5,248C 282.126,245.961 280.126,243.628 278.5,241C 277.5,240.5 276.5,240 275.5,239.5C 268.58,241.475 262.246,240.309 256.5,236C 255.748,235.329 255.414,234.496 255.5,233.5 Z"/></g>
<g><path style="opacity:1" fill="#eee6e5" d="M 259.5,248.5 C 255.566,249.36 251.566,249.693 247.5,249.5C 246.561,248.673 246.895,248.006 248.5,247.5C 252.249,248.824 255.916,248.491 259.5,246.5C 260.463,246.97 260.463,247.637 259.5,248.5 Z"/></g>
<g><path style="opacity:1" fill="#e6dad8" d="M 297.5,248.5 C 296.15,247.35 296.316,246.683 298,246.5C 302.578,247.584 305.744,250.251 307.5,254.5C 307.182,255.647 306.516,256.481 305.5,257C 307.881,258.247 307.547,258.58 304.5,258C 302.932,255.696 301.765,253.196 301,250.5C 300.184,249.177 299.017,248.511 297.5,248.5 Z"/></g>
<g><path style="opacity:0.668" fill="#c7000a" d="M 151.5,252.5 C 157.024,254.41 163.357,255.076 170.5,254.5C 168.885,257.45 166.885,260.116 164.5,262.5C 167.043,263.803 169.71,264.803 172.5,265.5C 173.429,266.689 173.762,268.022 173.5,269.5C 171.856,269.714 170.356,269.38 169,268.5C 168.667,272.833 168.333,277.167 168,281.5C 167.411,283.863 165.911,284.863 163.5,284.5C 163.5,280.5 163.5,276.5 163.5,272.5C 162.127,272.343 160.793,272.51 159.5,273C 156.658,280.053 151.658,283.553 144.5,283.5C 148.325,280.507 151.659,277.007 154.5,273C 151.774,272.818 149.107,272.318 146.5,271.5C 146.167,270.833 145.833,270.167 145.5,269.5C 149.132,268.016 152.466,266.016 155.5,263.5C 154.52,262.019 153.353,260.685 152,259.5C 150.261,261.741 148.094,263.408 145.5,264.5C 145.167,264.167 144.833,263.833 144.5,263.5C 147.094,259.974 149.427,256.308 151.5,252.5 Z M 154.5,258.5 C 156.966,257.366 159.633,257.199 162.5,258C 161.601,259.236 160.434,260.07 159,260.5C 157.594,259.586 156.094,258.92 154.5,258.5 Z M 158.5,266.5 C 160.771,265.946 163.104,266.446 165.5,268C 163.655,269.128 161.655,269.628 159.5,269.5C 159.737,268.209 159.404,267.209 158.5,266.5 Z"/></g>
<g><path style="opacity:1" fill="#9f6e69" d="M 262.5,244.5 C 258.688,245.324 254.688,245.824 250.5,246C 249.584,246.278 248.918,246.778 248.5,247.5C 246.895,248.006 246.561,248.673 247.5,249.5C 248.167,250.833 249.167,251.833 250.5,252.5C 252.527,252.338 254.527,252.505 256.5,253C 254.866,253.494 253.199,253.66 251.5,253.5C 251.829,260.16 255.162,264.494 261.5,266.5C 253.979,265.99 249.812,261.99 249,254.5C 246.379,252.551 244.546,250.051 243.5,247C 244.682,245.265 246.349,244.265 248.5,244C 253.352,243.185 258.019,243.352 262.5,244.5 Z"/></g>
<g><path style="opacity:1" fill="#f9f5f5" d="M 312.5,280.5 C 312.631,281.239 312.464,281.906 312,282.5C 308.125,279.78 304.791,280.446 302,284.5C 301.282,287.407 301.782,290.074 303.5,292.5C 301.399,294.109 299.065,294.609 296.5,294C 295.754,290.153 294.42,286.653 292.5,283.5C 290.61,283.297 289.11,283.963 288,285.5C 287.666,287.847 287.833,290.181 288.5,292.5C 286.473,292.338 284.473,292.505 282.5,293C 281.14,294.938 281.473,296.604 283.5,298C 282.906,298.464 282.239,298.631 281.5,298.5C 278.5,298.5 275.5,298.5 272.5,298.5C 269.189,298.693 266.522,297.693 264.5,295.5C 265.404,294.791 265.737,293.791 265.5,292.5C 259.56,291.372 253.56,290.205 247.5,289C 241.292,284.293 235.958,278.793 231.5,272.5C 228.165,268.157 225.665,263.491 224,258.5C 227.726,261.014 229.892,264.348 230.5,268.5C 232.631,269.314 234.964,269.814 237.5,270C 239.453,271.633 241.62,272.799 244,273.5C 245.662,273.612 246.829,272.946 247.5,271.5C 252.467,270.337 257.467,269.837 262.5,270C 263.313,271.803 264.48,273.303 266,274.5C 267.396,273.606 268.896,272.939 270.5,272.5C 272.792,274.449 275.459,275.449 278.5,275.5C 278.338,273.473 278.505,271.473 279,269.5C 280.585,264.846 282.752,260.513 285.5,256.5C 288.78,260.456 292.78,261.29 297.5,259C 298.252,258.329 298.586,257.496 298.5,256.5C 299.268,255.737 299.768,254.737 300,253.5C 300.983,255.448 302.15,257.282 303.5,259C 305.749,259.863 307.582,259.363 309,257.5C 314.015,261.839 315.848,267.173 314.5,273.5C 313.232,272.572 311.899,272.405 310.5,273C 307.759,276.289 308.425,278.789 312.5,280.5 Z"/></g>
<g><path style="opacity:1" fill="#b99692" d="M 262.5,244.5 C 267.711,246.562 271.378,250.229 273.5,255.5C 269.442,257.544 269.775,259.044 274.5,260C 272.649,261.752 270.649,263.252 268.5,264.5C 266.031,263.683 263.365,263.183 260.5,263C 264.5,262.333 264.5,261.667 260.5,261C 262.385,257.716 264.552,257.216 267,259.5C 267.75,258.874 268.584,258.374 269.5,258C 266.971,255.971 264.304,254.138 261.5,252.5C 259.49,253.349 257.823,252.682 256.5,250.5C 254.343,251.05 252.343,251.717 250.5,252.5C 249.167,251.833 248.167,250.833 247.5,249.5C 251.566,249.693 255.566,249.36 259.5,248.5C 260.463,247.637 260.463,246.97 259.5,246.5C 255.916,248.491 252.249,248.824 248.5,247.5C 248.918,246.778 249.584,246.278 250.5,246C 254.688,245.824 258.688,245.324 262.5,244.5 Z"/></g>
<g><path style="opacity:1" fill="#dac8c6" d="M 259.5,248.5 C 263.898,245.841 267.231,247.007 269.5,252C 269,252.5 268.5,253 268,253.5C 266.649,251.981 265.149,250.648 263.5,249.5C 262.522,249.977 261.689,250.643 261,251.5C 258.842,250.95 258.342,249.95 259.5,248.5 Z"/></g>
<g><path style="opacity:1" fill="#8d534d" d="M 295.5,251.5 C 297.199,251.34 298.866,251.506 300.5,252C 299.263,252.232 298.263,252.732 297.5,253.5C 297.178,257.976 294.844,259.476 290.5,258C 289.182,255.647 287.515,255.147 285.5,256.5C 282.752,260.513 280.585,264.846 279,269.5C 278.505,271.473 278.338,273.473 278.5,275.5C 275.459,275.449 272.792,274.449 270.5,272.5C 268.896,272.939 267.396,273.606 266,274.5C 264.48,273.303 263.313,271.803 262.5,270C 257.467,269.837 252.467,270.337 247.5,271.5C 246.829,272.946 245.662,273.612 244,273.5C 241.62,272.799 239.453,271.633 237.5,270C 234.964,269.814 232.631,269.314 230.5,268.5C 230.448,266.097 230.781,263.764 231.5,261.5C 231.077,258.757 232.244,257.424 235,257.5C 237.248,258.229 239.415,259.229 241.5,260.5C 242.183,260.137 242.85,259.804 243.5,259.5C 244.239,259.369 244.906,259.536 245.5,260C 244.541,261.464 243.208,262.297 241.5,262.5C 239.253,261.594 237.253,260.261 235.5,258.5C 231.586,260.992 231.586,263.492 235.5,266C 240.834,268.471 246.167,269.471 251.5,269C 250.15,267.282 248.983,265.448 248,263.5C 247.26,262.251 247.427,261.251 248.5,260.5C 250.361,263.022 252.361,265.522 254.5,268C 257.058,268.275 259.392,267.775 261.5,266.5C 263.965,266.233 266.299,265.566 268.5,264.5C 270.649,263.252 272.649,261.752 274.5,260C 269.775,259.044 269.442,257.544 273.5,255.5C 275.258,255.877 276.925,256.544 278.5,257.5C 283.601,253.911 289.268,251.911 295.5,251.5 Z"/></g>
<g><path style="opacity:1" fill="#d2bcb9" d="M 297.5,253.5 C 298.404,254.209 298.737,255.209 298.5,256.5C 298.586,257.496 298.252,258.329 297.5,259C 292.78,261.29 288.78,260.456 285.5,256.5C 287.515,255.147 289.182,255.647 290.5,258C 294.844,259.476 297.178,257.976 297.5,253.5 Z"/></g>
<g><path style="opacity:1" fill="#dab951" d="M 335.5,225.5 C 335.719,226.675 335.386,227.675 334.5,228.5C 333.604,227.494 332.938,227.494 332.5,228.5C 332.942,229.739 333.609,230.739 334.5,231.5C 336.527,234.194 338.861,236.527 341.5,238.5C 340.761,238.369 340.094,238.536 339.5,239C 340.667,240.833 341.833,242.667 343,244.5C 345.283,243.281 347.616,243.281 350,244.5C 355.93,243.258 355.764,242.424 349.5,242C 353.167,241.667 356.833,241.333 360.5,241C 358.665,240.072 358.332,238.906 359.5,237.5C 357.628,235.09 356.295,232.423 355.5,229.5C 357.823,232.135 359.656,235.135 361,238.5C 361.383,237.944 361.883,237.611 362.5,237.5C 363.69,239.355 365.023,241.188 366.5,243C 359.634,244.882 352.634,245.715 345.5,245.5C 345.612,256.882 340.112,263.548 329,265.5C 328.25,264.874 327.416,264.374 326.5,264C 328.776,261.615 330.109,258.781 330.5,255.5C 329.563,251.023 328.229,246.69 326.5,242.5C 327.404,241.791 327.737,240.791 327.5,239.5C 330.09,245.511 331.923,251.844 333,258.5C 335.053,254.414 335.887,250.08 335.5,245.5C 336.421,248.14 337.088,250.973 337.5,254C 336.068,256.383 335.235,258.883 335,261.5C 336.512,260.743 337.846,259.743 339,258.5C 340.5,255.167 342,251.833 343.5,248.5C 341.16,243.164 337.826,238.497 333.5,234.5C 332.208,232.333 331.375,230 331,227.5C 330.667,228.833 330.333,230.167 330,231.5C 329.764,229.881 328.931,228.881 327.5,228.5C 327.995,226.518 328.495,224.518 329,222.5C 329.691,225.591 331.524,226.757 334.5,226C 330.743,220.355 331.077,220.188 335.5,225.5 Z"/></g>
<g><path style="opacity:1" fill="#fefefc" d="M 347.5,238.5 C 347.917,237.876 348.584,237.543 349.5,237.5C 351.819,238.064 354.153,238.564 356.5,239C 353.469,239.495 350.469,239.329 347.5,238.5 Z"/></g>
<g><path style="opacity:1" fill="#fdfbf5" d="M 341.5,238.5 C 338.861,236.527 336.527,234.194 334.5,231.5C 334.435,231.062 334.601,230.728 335,230.5C 339.043,234.877 343.876,238.044 349.5,240C 346.678,240.428 344.012,239.928 341.5,238.5 Z"/></g>
<g><path style="opacity:1" fill="#fcfaf3" d="M 340.5,232.5 C 340.56,231.957 340.893,231.624 341.5,231.5C 345.716,233.41 350.05,234.577 354.5,235C 352.405,234.444 352.238,233.944 354,233.5C 355.059,233.63 355.892,234.13 356.5,235C 355.167,235.667 355.167,236.333 356.5,237C 350.769,237.036 345.436,235.536 340.5,232.5 Z"/></g>
<g><path style="opacity:1" fill="#c6aaa7" d="M 243.5,259.5 C 245.455,258.07 247.121,258.403 248.5,260.5C 247.427,261.251 247.26,262.251 248,263.5C 248.983,265.448 250.15,267.282 251.5,269C 246.167,269.471 240.834,268.471 235.5,266C 231.586,263.492 231.586,260.992 235.5,258.5C 237.253,260.261 239.253,261.594 241.5,262.5C 243.208,262.297 244.541,261.464 245.5,260C 244.906,259.536 244.239,259.369 243.5,259.5 Z"/></g>
<g><path style="opacity:1" fill="#d3bdbb" d="M 268.5,264.5 C 266.299,265.566 263.965,266.233 261.5,266.5C 255.162,264.494 251.829,260.16 251.5,253.5C 253.199,253.66 254.866,253.494 256.5,253C 254.527,252.505 252.527,252.338 250.5,252.5C 252.343,251.717 254.343,251.05 256.5,250.5C 257.823,252.682 259.49,253.349 261.5,252.5C 264.304,254.138 266.971,255.971 269.5,258C 268.584,258.374 267.75,258.874 267,259.5C 264.552,257.216 262.385,257.716 260.5,261C 264.5,261.667 264.5,262.333 260.5,263C 263.365,263.183 266.031,263.683 268.5,264.5 Z"/></g>
<g><path style="opacity:1" fill="#8f5650" d="M 283.5,262.5 C 284.496,262.414 285.329,262.748 286,263.5C 286.067,268.638 288.4,272.305 293,274.5C 293.688,275.332 293.521,275.998 292.5,276.5C 288.909,276.091 285.409,276.091 282,276.5C 281.333,274.833 281.333,273.167 282,271.5C 284.713,268.864 285.213,265.864 283.5,262.5 Z"/></g>
<g><path style="opacity:0.998" fill="#9b6863" d="M 231.5,261.5 C 230.781,263.764 230.448,266.097 230.5,268.5C 229.892,264.348 227.726,261.014 224,258.5C 225.665,263.491 228.165,268.157 231.5,272.5C 230.662,272.842 230.328,273.508 230.5,274.5C 229.761,274.631 229.094,274.464 228.5,274C 229.696,273.346 229.696,272.846 228.5,272.5C 227.167,273.167 226.167,274.167 225.5,275.5C 227.65,277.922 227.983,280.589 226.5,283.5C 231.803,284.642 235.136,287.809 236.5,293C 239.817,293.498 243.15,293.665 246.5,293.5C 248.34,295.669 250.674,297.002 253.5,297.5C 254.167,297.5 254.5,297.833 254.5,298.5C 253.054,299.613 251.387,299.78 249.5,299C 247.301,297.303 244.968,295.803 242.5,294.5C 240.902,295.485 239.235,295.651 237.5,295C 235.184,292.752 232.85,290.419 230.5,288C 228.913,287.138 227.246,286.471 225.5,286C 226.136,282.188 225.47,278.522 223.5,275C 223.473,272.36 224.807,271.027 227.5,271C 223.933,264.699 220.766,258.199 218,251.5C 216.167,249.667 214.333,247.833 212.5,246C 205.614,243.683 198.614,241.683 191.5,240C 189.667,238.167 187.833,236.333 186,234.5C 184.479,230.226 182.813,226.226 181,222.5C 181.893,223.081 182.893,223.415 184,223.5C 189.474,221.574 194.974,220.907 200.5,221.5C 200.5,221.833 200.5,222.167 200.5,222.5C 197.09,222.457 193.757,222.957 190.5,224C 193.365,224.183 196.031,224.683 198.5,225.5C 194.833,225.5 191.167,225.5 187.5,225.5C 186.448,225.351 185.448,225.517 184.5,226C 185.949,227.117 187.616,227.784 189.5,228C 188.572,228.388 187.905,229.055 187.5,230C 188.41,233.155 190.076,235.822 192.5,238C 197.705,239.941 203.039,241.441 208.5,242.5C 209.696,242.154 209.696,241.654 208.5,241C 209.094,240.536 209.761,240.369 210.5,240.5C 211.254,242.446 212.588,243.279 214.5,243C 212.993,242.163 212.493,240.996 213,239.5C 215.595,240.231 217.261,241.898 218,244.5C 218.44,242.134 218.94,239.801 219.5,237.5C 219.665,233.818 219.499,230.152 219,226.5C 217.255,221.265 215.921,215.932 215,210.5C 214.503,213.146 214.336,215.813 214.5,218.5C 214.167,218.5 213.833,218.5 213.5,218.5C 213.965,214.897 213.632,212.897 212.5,212.5C 211.167,212.5 210.5,211.833 210.5,210.5C 211.716,208.52 212.549,206.52 213,204.5C 209.617,206.381 207.117,209.048 205.5,212.5C 204.778,212.918 204.278,213.584 204,214.5C 203.536,213.906 203.369,213.239 203.5,212.5C 206.353,204.331 212.02,200.998 220.5,202.5C 218.013,204.954 216.679,207.954 216.5,211.5C 218.901,218.371 220.901,225.371 222.5,232.5C 219.424,240.515 219.924,248.181 224,255.5C 226.106,258.118 228.606,260.118 231.5,261.5 Z"/></g>
<g><path style="opacity:1" fill="#caafad" d="M 187.5,225.5 C 190.641,226.321 193.975,226.821 197.5,227C 195.5,227.333 193.5,227.667 191.5,228C 195.2,228.911 198.867,229.578 202.5,230C 201.167,229.333 199.833,228.667 198.5,228C 203,228.589 206.667,230.756 209.5,234.5C 209.389,235.117 209.056,235.617 208.5,236C 209.582,237.33 210.249,238.83 210.5,240.5C 209.761,240.369 209.094,240.536 208.5,241C 209.696,241.654 209.696,242.154 208.5,242.5C 203.039,241.441 197.705,239.941 192.5,238C 190.076,235.822 188.41,233.155 187.5,230C 187.905,229.055 188.572,228.388 189.5,228C 187.616,227.784 185.949,227.117 184.5,226C 185.448,225.517 186.448,225.351 187.5,225.5 Z"/></g>
<g><path style="opacity:1" fill="#dbc8c6" d="M 213.5,227.5 C 214.347,230.16 214.847,232.826 215,235.5C 213.721,232.888 212.055,230.555 210,228.5C 208.75,225.923 208.416,223.257 209,220.5C 209.333,221.833 209.667,223.167 210,224.5C 210.333,223.833 210.667,223.167 211,222.5C 211.374,224.491 212.207,226.158 213.5,227.5 Z"/></g>
<g><path style="opacity:1" fill="#f5f1f0" d="M 190.5,230.5 C 196.471,229.976 202.138,231.476 207.5,235C 206.5,235.5 205.5,236 204.5,236.5C 204.167,235.833 203.833,235.167 203.5,234.5C 202.232,235.428 200.899,235.595 199.5,235C 202.167,234.333 202.167,233.667 199.5,233C 196.454,232.261 193.454,231.428 190.5,230.5 Z"/></g>
<g><path style="opacity:1" fill="#f9f6f6" d="M 187.5,225.5 C 191.167,225.5 194.833,225.5 198.5,225.5C 200.302,226.458 202.302,227.125 204.5,227.5C 207.438,229.934 210.271,232.601 213,235.5C 213.667,236.167 213.667,236.833 213,237.5C 211.961,236.29 210.794,235.29 209.5,234.5C 206.667,230.756 203,228.589 198.5,228C 199.833,228.667 201.167,229.333 202.5,230C 198.867,229.578 195.2,228.911 191.5,228C 193.5,227.667 195.5,227.333 197.5,227C 193.975,226.821 190.641,226.321 187.5,225.5 Z"/></g>
<g><path style="opacity:1" fill="#d2bcb9" d="M 200.5,222.5 C 201.542,223.791 202.708,223.791 204,222.5C 204.635,223.966 205.469,225.3 206.5,226.5C 206.043,227.298 205.376,227.631 204.5,227.5C 202.302,227.125 200.302,226.458 198.5,225.5C 196.031,224.683 193.365,224.183 190.5,224C 193.757,222.957 197.09,222.457 200.5,222.5 Z"/></g>
<g><path style="opacity:1" fill="#925b55" d="M 258.5,271.5 C 261.173,271.684 261.84,272.851 260.5,275C 258.242,276.103 255.909,276.936 253.5,277.5C 250.292,277.812 249.292,276.645 250.5,274C 253.522,273.902 256.189,273.068 258.5,271.5 Z"/></g>
<g><path style="opacity:1" fill="#935c56" d="M 266.5,276.5 C 269.397,276.125 272.063,276.625 274.5,278C 270.681,279.317 266.681,280.15 262.5,280.5C 261.5,280.167 260.5,279.833 259.5,279.5C 262.217,279.026 264.55,278.026 266.5,276.5 Z"/></g>
<g><path style="opacity:1" fill="#97625c" d="M 286.5,282.5 C 286.631,281.624 286.298,280.957 285.5,280.5C 282.057,281.266 278.557,282.599 275,284.5C 268.995,284.234 262.495,283.734 255.5,283C 249.959,281.544 244.959,279.044 240.5,275.5C 240.167,275.667 239.833,275.833 239.5,276C 241.141,277.129 242.141,278.629 242.5,280.5C 238.728,278.585 236.894,275.585 237,271.5C 253.233,283.753 270.733,285.753 289.5,277.5C 290.167,277.667 290.833,277.833 291.5,278C 289.638,279.366 287.972,280.866 286.5,282.5 Z"/></g>
<g><path style="opacity:1" fill="#d8c4c2" d="M 315.5,285.5 C 314.953,280.937 313.786,280.604 312,284.5C 307.742,281.419 304.909,282.419 303.5,287.5C 303.529,289.029 304.196,290.196 305.5,291C 304.956,291.717 304.289,292.217 303.5,292.5C 301.782,290.074 301.282,287.407 302,284.5C 304.791,280.446 308.125,279.78 312,282.5C 312.464,281.906 312.631,281.239 312.5,280.5C 307.911,276.058 308.911,274.058 315.5,274.5C 316.977,279.071 317.477,283.738 317,288.5C 316.768,287.263 316.268,286.263 315.5,285.5 Z"/></g>
<g><path style="opacity:1" fill="#945e59" d="M 244.5,283.5 C 247.122,281.992 249.455,282.492 251.5,285C 253.708,285.191 255.708,285.691 257.5,286.5C 253.583,288.49 250.583,287.657 248.5,284C 247.207,283.51 245.873,283.343 244.5,283.5 Z"/></g>
<g><path style="opacity:1" fill="#8f5751" d="M 315.5,285.5 C 315.167,285.5 314.833,285.5 314.5,285.5C 311.719,287.757 308.719,290.59 305.5,294C 302.691,295.741 299.691,296.908 296.5,297.5C 296.768,299.099 296.434,300.432 295.5,301.5C 294.9,300.1 293.9,299.1 292.5,298.5C 288.952,299.416 285.619,300.083 282.5,300.5C 281.702,300.043 281.369,299.376 281.5,298.5C 282.239,298.631 282.906,298.464 283.5,298C 281.473,296.604 281.14,294.938 282.5,293C 284.473,292.505 286.473,292.338 288.5,292.5C 287.833,290.181 287.666,287.847 288,285.5C 289.11,283.963 290.61,283.297 292.5,283.5C 294.42,286.653 295.754,290.153 296.5,294C 299.065,294.609 301.399,294.109 303.5,292.5C 304.289,292.217 304.956,291.717 305.5,291C 304.196,290.196 303.529,289.029 303.5,287.5C 304.909,282.419 307.742,281.419 312,284.5C 313.786,280.604 314.953,280.937 315.5,285.5 Z"/></g>
<g><path style="opacity:1" fill="#d4bebc" d="M 286.5,282.5 C 284.864,283.749 283.697,285.416 283,287.5C 280.025,291.028 276.692,291.362 273,288.5C 271.629,288.243 270.129,288.577 268.5,289.5C 266.348,287.931 264.014,287.431 261.5,288C 262.416,288.278 263.082,288.778 263.5,289.5C 260.687,289.975 258.687,288.975 257.5,286.5C 255.708,285.691 253.708,285.191 251.5,285C 249.455,282.492 247.122,281.992 244.5,283.5C 243.094,283.027 242.427,282.027 242.5,280.5C 242.141,278.629 241.141,277.129 239.5,276C 239.833,275.833 240.167,275.667 240.5,275.5C 244.959,279.044 249.959,281.544 255.5,283C 262.495,283.734 268.995,284.234 275,284.5C 278.557,282.599 282.057,281.266 285.5,280.5C 286.298,280.957 286.631,281.624 286.5,282.5 Z"/></g>
<g><path style="opacity:1" fill="#d9c5c3" d="M 230.5,274.5 C 231.401,275.29 232.068,276.29 232.5,277.5C 232.12,278.133 231.787,278.8 231.5,279.5C 230.549,278.674 229.549,278.508 228.5,279C 229.667,280.167 230.833,281.333 232,282.5C 232.317,280.699 232.984,280.366 234,281.5C 235.368,282.993 235.535,284.493 234.5,286C 236.618,286.26 238.284,287.26 239.5,289C 237.314,289.604 237.148,290.77 239,292.5C 240.398,291.949 241.732,291.616 243,291.5C 244.302,292.085 245.469,292.751 246.5,293.5C 243.15,293.665 239.817,293.498 236.5,293C 235.136,287.809 231.803,284.642 226.5,283.5C 227.983,280.589 227.65,277.922 225.5,275.5C 226.167,274.167 227.167,273.167 228.5,272.5C 229.696,272.846 229.696,273.346 228.5,274C 229.094,274.464 229.761,274.631 230.5,274.5 Z"/></g>
<g><path style="opacity:0.654" fill="#c7000a" d="M 157.5,288.5 C 159.167,288.5 160.833,288.5 162.5,288.5C 162.682,290.591 162.348,292.591 161.5,294.5C 162.325,295.386 163.325,295.719 164.5,295.5C 164.183,291.828 165.849,290.162 169.5,290.5C 169.703,292.39 169.037,293.89 167.5,295C 170.119,294.917 172.786,294.75 175.5,294.5C 175.92,296.674 175.92,298.674 175.5,300.5C 170.742,297.952 165.575,296.952 160,297.5C 156.167,297.667 152.333,297.833 148.5,298C 143.484,300.52 142.484,299.52 145.5,295C 147.856,294.845 150.189,294.845 152.5,295C 150.893,293.951 150.227,292.451 150.5,290.5C 151.833,290.5 153.167,290.5 154.5,290.5C 154.383,292.484 155.05,294.15 156.5,295.5C 157.474,293.257 157.808,290.924 157.5,288.5 Z"/></g>
<g><path style="opacity:1" fill="#c7aba8" d="M 232.5,277.5 C 235.612,281.442 239.279,284.942 243.5,288C 242.833,288.333 242.167,288.667 241.5,289C 246.855,290.588 251.855,292.921 256.5,296C 255.263,296.232 254.263,296.732 253.5,297.5C 250.674,297.002 248.34,295.669 246.5,293.5C 245.469,292.751 244.302,292.085 243,291.5C 241.732,291.616 240.398,291.949 239,292.5C 237.148,290.77 237.314,289.604 239.5,289C 238.284,287.26 236.618,286.26 234.5,286C 235.535,284.493 235.368,282.993 234,281.5C 232.984,280.366 232.317,280.699 232,282.5C 230.833,281.333 229.667,280.167 228.5,279C 229.549,278.508 230.549,278.674 231.5,279.5C 231.787,278.8 232.12,278.133 232.5,277.5 Z"/></g>
<g><path style="opacity:1" fill="#8c524c" d="M 231.5,272.5 C 235.958,278.793 241.292,284.293 247.5,289C 253.56,290.205 259.56,291.372 265.5,292.5C 265.737,293.791 265.404,294.791 264.5,295.5C 261.933,295.721 259.599,296.388 257.5,297.5C 256.609,298.11 255.609,298.443 254.5,298.5C 254.5,297.833 254.167,297.5 253.5,297.5C 254.263,296.732 255.263,296.232 256.5,296C 251.855,292.921 246.855,290.588 241.5,289C 242.167,288.667 242.833,288.333 243.5,288C 239.279,284.942 235.612,281.442 232.5,277.5C 232.068,276.29 231.401,275.29 230.5,274.5C 230.328,273.508 230.662,272.842 231.5,272.5 Z"/></g>
<g><path style="opacity:1" fill="#9d6b66" d="M 286.5,282.5 C 286.159,285.516 284.993,288.182 283,290.5C 281.806,291.43 280.473,292.097 279,292.5C 273.818,291.587 268.651,290.587 263.5,289.5C 263.082,288.778 262.416,288.278 261.5,288C 264.014,287.431 266.348,287.931 268.5,289.5C 270.129,288.577 271.629,288.243 273,288.5C 276.692,291.362 280.025,291.028 283,287.5C 283.697,285.416 284.864,283.749 286.5,282.5 Z"/></g>
<g><path style="opacity:1" fill="#8c534d" d="M 270.5,292.5 C 273.755,292.014 276.422,293.014 278.5,295.5C 275.262,295.494 271.929,295.661 268.5,296C 268.167,295.667 267.833,295.333 267.5,295C 268.571,294.148 269.571,293.315 270.5,292.5 Z"/></g>
<g><path style="opacity:0.723" fill="#c7000a" d="M 150.5,298.5 C 156.833,299.833 163.167,299.833 169.5,298.5C 171.256,308.33 167.756,311.33 159,307.5C 155.884,307.28 153.05,307.947 150.5,309.5C 149.242,305.79 149.242,302.123 150.5,298.5 Z M 154.5,301.5 C 158.167,301.5 161.833,301.5 165.5,301.5C 165.5,302.833 165.5,304.167 165.5,305.5C 161.833,305.5 158.167,305.5 154.5,305.5C 154.5,304.167 154.5,302.833 154.5,301.5 Z"/></g>
<g><path style="opacity:0.544" fill="#c7000a" d="M 156.5,308.5 C 158.167,308.5 159.833,308.5 161.5,308.5C 161.5,309.5 161.5,310.5 161.5,311.5C 165.167,311.5 168.833,311.5 172.5,311.5C 172.5,312.5 172.5,313.5 172.5,314.5C 168.774,314.177 165.107,314.511 161.5,315.5C 161.291,316.086 160.957,316.586 160.5,317C 165.489,317.499 170.489,317.666 175.5,317.5C 175.5,318.5 175.5,319.5 175.5,320.5C 164.167,320.5 152.833,320.5 141.5,320.5C 141.5,319.5 141.5,318.5 141.5,317.5C 146.5,317.5 151.5,317.5 156.5,317.5C 156.5,316.5 156.5,315.5 156.5,314.5C 153.167,314.5 149.833,314.5 146.5,314.5C 146.5,313.5 146.5,312.5 146.5,311.5C 149.833,311.5 153.167,311.5 156.5,311.5C 156.5,310.5 156.5,309.5 156.5,308.5 Z"/></g>
<g><path style="opacity:1" fill="#9d6b66" d="M 264.5,295.5 C 266.522,297.693 269.189,298.693 272.5,298.5C 272.5,299.167 272.833,299.5 273.5,299.5C 273.175,304.795 271.841,309.795 269.5,314.5C 269.543,315.416 269.876,316.083 270.5,316.5C 270.783,317.289 271.283,317.956 272,318.5C 279.02,318.082 285.02,315.415 290,310.5C 291.094,308.922 291.928,307.255 292.5,305.5C 293.833,303.167 293.833,300.833 292.5,298.5C 293.9,299.1 294.9,300.1 295.5,301.5C 292.482,313.01 284.982,319.344 273,320.5C 270.061,319.23 268.227,317.064 267.5,314C 268.044,310.912 269.378,308.245 271.5,306C 270.308,303.945 270.308,301.945 271.5,300C 266.878,298.844 262.211,298.01 257.5,297.5C 259.599,296.388 261.933,295.721 264.5,295.5 Z"/></g>
<g><path style="opacity:1" fill="#cfb7b4" d="M 273.5,299.5 C 278.412,299.506 281.412,301.506 282.5,305.5C 283.869,303.876 285.536,303.376 287.5,304C 286.346,304.914 286.513,305.747 288,306.5C 289.113,305.24 289.28,304.073 288.5,303C 289.667,302.5 290.5,301.667 291,300.5C 292.852,302.23 292.686,303.396 290.5,304C 291.044,304.717 291.711,305.217 292.5,305.5C 291.928,307.255 291.094,308.922 290,310.5C 285.02,315.415 279.02,318.082 272,318.5C 271.283,317.956 270.783,317.289 270.5,316.5C 269.876,316.083 269.543,315.416 269.5,314.5C 271.841,309.795 273.175,304.795 273.5,299.5 Z"/></g>
<g><path style="opacity:1" fill="#ba9793" d="M 272.5,298.5 C 275.5,298.5 278.5,298.5 281.5,298.5C 281.369,299.376 281.702,300.043 282.5,300.5C 285.619,300.083 288.952,299.416 292.5,298.5C 293.833,300.833 293.833,303.167 292.5,305.5C 291.711,305.217 291.044,304.717 290.5,304C 292.686,303.396 292.852,302.23 291,300.5C 290.5,301.667 289.667,302.5 288.5,303C 289.28,304.073 289.113,305.24 288,306.5C 286.513,305.747 286.346,304.914 287.5,304C 285.536,303.376 283.869,303.876 282.5,305.5C 281.412,301.506 278.412,299.506 273.5,299.5C 272.833,299.5 272.5,299.167 272.5,298.5 Z"/></g>
<g><path style="opacity:1" fill="#faf8f8" d="M 270.5,316.5 C 270.414,315.504 270.748,314.671 271.5,314C 274.883,312.757 278.216,311.757 281.5,311C 278.086,313.374 274.419,315.207 270.5,316.5 Z"/></g>
<g><path style="opacity:0.659" fill="#000000" d="M 139.5,343.5 C 143.577,343.017 145.91,344.684 146.5,348.5C 142.107,348.457 141.774,348.957 145.5,350C 148.374,353.051 148.041,355.718 144.5,358C 139.447,359.324 136.78,357.49 136.5,352.5C 140.243,352.541 140.41,351.874 137,350.5C 135.916,347.341 136.75,345.008 139.5,343.5 Z M 140.5,352.5 C 142.983,352.73 143.483,353.397 142,354.5C 140.97,354.164 140.47,353.497 140.5,352.5 Z"/></g>
<g><path style="opacity:0.652" fill="#000000" d="M 148.5,343.5 C 149.833,343.5 151.167,343.5 152.5,343.5C 152.5,348.167 152.5,352.833 152.5,357.5C 151.167,357.5 149.833,357.5 148.5,357.5C 148.5,352.833 148.5,348.167 148.5,343.5 Z"/></g>
<g><path style="opacity:0.707" fill="#000000" d="M 155.5,343.5 C 156.978,343.238 158.311,343.571 159.5,344.5C 160.414,346.664 161.581,348.664 163,350.5C 163.397,346.288 165.564,343.954 169.5,343.5C 170.074,348.183 170.74,352.85 171.5,357.5C 170.167,357.5 168.833,357.5 167.5,357.5C 167.769,355.571 167.269,353.905 166,352.5C 163.046,359.216 160.712,358.882 159,351.5C 158.187,353.436 157.687,355.436 157.5,357.5C 156.022,357.762 154.689,357.429 153.5,356.5C 154.538,352.231 155.205,347.898 155.5,343.5 Z"/></g>
<g><path style="opacity:0.718" fill="#000000" d="M 177.5,343.5 C 178.552,343.351 179.552,343.517 180.5,344C 181.88,345.925 183.38,347.759 185,349.5C 185.495,347.527 185.662,345.527 185.5,343.5C 186.833,343.5 188.167,343.5 189.5,343.5C 189.334,347.846 189.501,352.179 190,356.5C 191.667,352.5 193.333,348.5 195,344.5C 196.333,343.167 197.667,343.167 199,344.5C 203.46,359.457 205.626,359.124 205.5,343.5C 206.978,343.238 208.311,343.571 209.5,344.5C 210.414,346.664 211.581,348.664 213,350.5C 213.397,346.288 215.564,343.954 219.5,343.5C 220.074,348.183 220.74,352.85 221.5,357.5C 220.167,357.5 218.833,357.5 217.5,357.5C 217.769,355.571 217.269,353.905 216,352.5C 213.046,359.216 210.712,358.882 209,351.5C 208.187,353.436 207.687,355.436 207.5,357.5C 203.839,357.71 200.339,357.044 197,355.5C 193.318,357.264 189.485,357.764 185.5,357C 184.12,355.075 182.62,353.241 181,351.5C 180.505,353.473 180.338,355.473 180.5,357.5C 179.5,357.5 178.5,357.5 177.5,357.5C 177.5,352.833 177.5,348.167 177.5,343.5 Z"/></g>
<g><path style="opacity:0.703" fill="#000000" d="M 228.5,343.5 C 232.436,343.954 234.603,346.288 235,350.5C 236.544,348.532 237.711,346.365 238.5,344C 239.793,343.51 241.127,343.343 242.5,343.5C 242.626,347.923 243.293,352.256 244.5,356.5C 243.167,357.833 241.833,357.833 240.5,356.5C 239.846,354.885 239.346,353.218 239,351.5C 237.288,358.882 234.954,359.216 232,352.5C 230.731,353.905 230.231,355.571 230.5,357.5C 229.167,357.5 227.833,357.5 226.5,357.5C 227.167,352.833 227.833,348.167 228.5,343.5 Z"/></g>
<g><path style="opacity:0.722" fill="#000000" d="M 245.5,343.5 C 248.5,343.5 251.5,343.5 254.5,343.5C 254.5,344.833 254.5,346.167 254.5,347.5C 252.712,347.215 251.045,347.548 249.5,348.5C 250.689,349.429 252.022,349.762 253.5,349.5C 253.5,350.5 253.5,351.5 253.5,352.5C 252.022,352.238 250.689,352.571 249.5,353.5C 251.045,354.452 252.712,354.785 254.5,354.5C 254.5,355.5 254.5,356.5 254.5,357.5C 251.5,357.5 248.5,357.5 245.5,357.5C 245.5,352.833 245.5,348.167 245.5,343.5 Z"/></g>
<g><path style="opacity:0.705" fill="#000000" d="M 255.5,343.5 C 258.91,343.457 262.243,343.957 265.5,345C 269.5,349 269.5,353 265.5,357C 262.183,357.498 258.85,357.665 255.5,357.5C 255.5,352.833 255.5,348.167 255.5,343.5 Z M 259.5,347.5 C 264.493,347.997 265.493,350.164 262.5,354C 261.552,354.483 260.552,354.649 259.5,354.5C 259.5,352.167 259.5,349.833 259.5,347.5 Z"/></g>
<g><path style="opacity:0.652" fill="#000000" d="M 269.5,343.5 C 270.833,343.5 272.167,343.5 273.5,343.5C 273.5,348.167 273.5,352.833 273.5,357.5C 272.167,357.5 270.833,357.5 269.5,357.5C 269.5,352.833 269.5,348.167 269.5,343.5 Z"/></g>
<g><path style="opacity:0.641" fill="#000000" d="M 288.5,355.5 C 281.718,360.446 277.052,358.946 274.5,351C 276.093,344.204 280.093,342.204 286.5,345C 288.037,346.11 288.703,347.61 288.5,349.5C 286.046,349.679 283.879,349.013 282,347.5C 277.333,349.833 277.333,352.167 282,354.5C 283.86,352.799 286.027,351.799 288.5,351.5C 288.5,352.833 288.5,354.167 288.5,355.5 Z"/></g>
<g><path style="opacity:0.712" fill="#000000" d="M 288.5,355.5 C 290.338,352.019 292.004,348.353 293.5,344.5C 294.689,343.571 296.022,343.238 297.5,343.5C 298.869,347.912 300.536,352.246 302.5,356.5C 301.833,356.833 301.167,357.167 300.5,357.5C 298.833,356.833 297.167,356.167 295.5,355.5C 293.833,356.167 292.167,356.833 290.5,357.5C 289.287,357.253 288.62,356.586 288.5,355.5 Z M 294.5,350.5 C 295.289,350.783 295.956,351.283 296.5,352C 295.184,352.528 294.517,352.028 294.5,350.5 Z"/></g>
<g><path style="opacity:0.706" fill="#000000" d="M 303.5,343.5 C 304.822,343.33 305.989,343.663 307,344.5C 307.498,347.817 307.665,351.15 307.5,354.5C 309.167,354.5 310.833,354.5 312.5,354.5C 312.5,355.5 312.5,356.5 312.5,357.5C 309.5,357.5 306.5,357.5 303.5,357.5C 303.5,352.833 303.5,348.167 303.5,343.5 Z"/></g>
<g><path style="opacity:0.695" fill="#000000" d="M 317.5,343.5 C 318.833,343.5 320.167,343.5 321.5,343.5C 321.5,345.167 321.5,346.833 321.5,348.5C 322.833,348.5 324.167,348.5 325.5,348.5C 325.5,346.833 325.5,345.167 325.5,343.5C 326.822,343.33 327.989,343.663 329,344.5C 329.333,348.5 329.667,352.5 330,356.5C 331.807,352.244 333.307,347.911 334.5,343.5C 335.978,343.238 337.311,343.571 338.5,344.5C 340.167,348.5 341.833,352.5 343.5,356.5C 342.833,356.833 342.167,357.167 341.5,357.5C 339.833,356.833 338.167,356.167 336.5,355.5C 333.092,357.221 329.425,357.888 325.5,357.5C 325.5,355.833 325.5,354.167 325.5,352.5C 324.167,352.5 322.833,352.5 321.5,352.5C 321.5,354.167 321.5,355.833 321.5,357.5C 320.167,357.5 318.833,357.5 317.5,357.5C 317.5,352.833 317.5,348.167 317.5,343.5 Z M 336.5,350.5 C 337.773,351.077 337.773,351.743 336.5,352.5C 335.537,352.03 335.537,351.363 336.5,350.5 Z"/></g>
<g><path style="opacity:0.697" fill="#000000" d="M 344.5,343.5 C 345.833,343.5 347.167,343.5 348.5,343.5C 348.5,347.167 348.5,350.833 348.5,354.5C 350.167,354.5 351.833,354.5 353.5,354.5C 353.5,355.5 353.5,356.5 353.5,357.5C 350.5,357.5 347.5,357.5 344.5,357.5C 344.5,352.833 344.5,348.167 344.5,343.5 Z"/></g>
<g><path style="opacity:0.706" fill="#000000" d="M 354.5,343.5 C 355.822,343.33 356.989,343.663 358,344.5C 358.498,347.817 358.665,351.15 358.5,354.5C 360.167,354.5 361.833,354.5 363.5,354.5C 363.5,355.5 363.5,356.5 363.5,357.5C 360.5,357.5 357.5,357.5 354.5,357.5C 354.5,352.833 354.5,348.167 354.5,343.5 Z"/></g>
</svg>
