<?xml version="1.0" encoding="UTF-8"?>
<svg version="1.1" xmlns="http://www.w3.org/2000/svg" width="500" height="500">
<path d="M0 0 C4.20602676 2.22672005 7.97745012 4.69205333 11.578125 7.828125 C12.03960937 7.36921875 12.50109375 6.9103125 12.9765625 6.4375 C18.82480984 0.93598669 25.32755113 -3.42751495 33.640625 -3.359375 C35.0946875 -3.2665625 35.0946875 -3.2665625 36.578125 -3.171875 C36.908125 -3.501875 37.238125 -3.831875 37.578125 -4.171875 C50.43251118 -5.29044498 60.98373534 -2.87738484 71.328125 4.9140625 C77.62693715 10.272427 82.06671626 16.37067062 85.578125 23.828125 C86.04605469 24.73046875 86.51398438 25.6328125 86.99609375 26.5625 C93.6404997 41.52637223 93.01283672 61.44957756 87.34204102 76.65722656 C82.50619066 88.38166283 76.12310708 99.42395825 67.578125 108.828125 C66.78019531 109.70726562 65.98226562 110.58640625 65.16015625 111.4921875 C52.55800399 124.70862488 34.99575873 138.02224709 17.578125 143.828125 C17.6503125 142.84457031 17.7225 141.86101562 17.796875 140.84765625 C20.10920524 107.25520688 17.62393644 75.86148693 -4.421875 48.828125 C-5.12054688 47.96574219 -5.81921875 47.10335937 -6.5390625 46.21484375 C-11.83316326 40.0069925 -17.70431842 35.40875807 -24.421875 30.828125 C-25.76085788 29.8357024 -27.09636828 28.83847628 -28.421875 27.828125 C-22.30227691 23.42528439 -15.59694335 24.18063719 -8.421875 24.828125 C5.25126413 27.87563001 13.54971666 41.46758954 21.26513672 52.04589844 C26.53881123 59.2042889 31.96057786 64.95560929 40.578125 67.828125 C45.97142405 68.30285984 50.89491394 68.51387765 55.953125 66.453125 C62.43372768 59.97252232 65.46517131 52.8468877 66.578125 43.828125 C66.248125 43.828125 65.918125 43.828125 65.578125 43.828125 C65.43117188 43.0546875 65.28421875 42.28125 65.1328125 41.484375 C63.07817572 31.94330307 59.67958194 25.19345297 51.3515625 19.79296875 C45.49921927 16.60898466 39.09843749 15.92972967 32.578125 16.828125 C25.11474403 19.04619613 19.02921823 22.27074304 13.578125 27.828125 C13.02253906 28.38242188 12.46695313 28.93671875 11.89453125 29.5078125 C11.46011719 29.94351563 11.02570313 30.37921875 10.578125 30.828125 C10.10375 30.126875 9.629375 29.425625 9.140625 28.703125 C3.17706002 22.012296 -4.75104525 17.66197872 -13.671875 16.546875 C-21.69653122 16.21251432 -28.03364194 18.35857836 -34.234375 23.453125 C-40.92743985 29.79576761 -43.365255 37.34382486 -43.609375 46.390625 C-43.56470476 52.31389877 -42.53860909 58.02509609 -41.421875 63.828125 C-40.25011719 64.11945313 -39.07835937 64.41078125 -37.87109375 64.7109375 C-25.98255674 67.76950966 -13.89695933 71.31364354 -5.421875 80.828125 C-5.091875 81.818125 -4.761875 82.808125 -4.421875 83.828125 C-7.4098667 86.8161167 -8.96590096 87.78327509 -13.234375 88.203125 C-16.16188173 88.07080831 -18.73880827 87.51923617 -21.546875 86.703125 C-25.75078615 85.75385474 -27.56991783 86.04307168 -31.421875 87.828125 C-32.80731936 89.00017456 -32.80731936 89.00017456 -32.734375 92.265625 C-32.56847866 100.71125702 -28.6550904 107.59531695 -22.9375 113.609375 C-16.82288753 119.00238724 -9.67955115 123.06744543 -2.546875 126.9609375 C-1.91861816 127.30697021 -1.29036133 127.65300293 -0.64306641 128.00952148 C1.10097502 128.95995718 2.85873038 129.88510197 4.6171875 130.80859375 C8.01611411 133.12685899 9.65038795 135.21012575 11.578125 138.828125 C12.049458 141.64669633 11.77708932 143.94314233 11.578125 146.828125 C6.56070601 146.24653812 2.71162308 143.95965165 -1.609375 141.515625 C-2.3945752 141.073396 -3.17977539 140.63116699 -3.98876953 140.17553711 C-17.67031201 132.35420539 -30.19288916 123.91848139 -41.421875 112.828125 C-42.48921875 111.8690625 -42.48921875 111.8690625 -43.578125 110.890625 C-59.11687305 96.58511092 -67.96975607 75.27400453 -69.69921875 54.49609375 C-70.04525744 43.04913401 -67.67925965 32.00233497 -62.421875 21.828125 C-61.94621094 20.83425781 -61.94621094 20.83425781 -61.4609375 19.8203125 C-49.86395038 -2.41451243 -22.31778266 -10.79892709 0 0 Z M59.578125 10.828125 C60.578125 12.828125 60.578125 12.828125 60.578125 12.828125 Z M61.578125 13.828125 C62.578125 15.828125 62.578125 15.828125 62.578125 15.828125 Z M62.578125 15.828125 C63.578125 17.828125 63.578125 17.828125 63.578125 17.828125 Z M63.578125 17.828125 C64.578125 19.828125 64.578125 19.828125 64.578125 19.828125 Z M64.578125 20.828125 C65.578125 22.828125 65.578125 22.828125 65.578125 22.828125 Z M65.578125 23.828125 C66.578125 25.828125 66.578125 25.828125 66.578125 25.828125 Z M66.578125 27.828125 C66.578125 29.478125 66.578125 31.128125 66.578125 32.828125 C66.908125 32.828125 67.238125 32.828125 67.578125 32.828125 C67.578125 31.178125 67.578125 29.528125 67.578125 27.828125 C67.248125 27.828125 66.918125 27.828125 66.578125 27.828125 Z M-61.421875 34.828125 C-61.421875 36.478125 -61.421875 38.128125 -61.421875 39.828125 C-61.091875 39.828125 -60.761875 39.828125 -60.421875 39.828125 C-60.421875 38.178125 -60.421875 36.528125 -60.421875 34.828125 C-60.751875 34.828125 -61.081875 34.828125 -61.421875 34.828125 Z M-60.421875 40.828125 C-59.421875 43.828125 -59.421875 43.828125 -59.421875 43.828125 Z M-59.421875 44.828125 C-58.421875 46.828125 -58.421875 46.828125 -58.421875 46.828125 Z M-58.421875 47.828125 C-57.421875 49.828125 -57.421875 49.828125 -57.421875 49.828125 Z M-57.421875 49.828125 C-56.421875 51.828125 -56.421875 51.828125 -56.421875 51.828125 Z M-56.421875 51.828125 C-55.421875 53.828125 -55.421875 53.828125 -55.421875 53.828125 Z " fill="#CFA720" transform="translate(266.421875,176.171875)"/>
<path d="M0 0 C3.55930744 2.18128763 6.19010722 4.78516084 8.5 8.25 C9.39842868 13.19135776 9.38359324 18.38773323 6.98828125 22.91015625 C4.45736137 26.15963382 1.98778477 28.07260819 -2 29 C-8.43195992 29.62244773 -11.75520466 28.8050476 -17 25 C-20.05825627 21.74443687 -20.23029379 18.81224508 -20.375 14.5 C-20.23606279 10.18715754 -19.99885322 7.29873854 -17 4 C-11.38214335 -0.21339249 -6.92872886 -2.06846668 0 0 Z " fill="#CFA720" transform="translate(316,209)"/>
<path d="M0 0 C0.99 0 1.98 0 3 0 C3 0.99 3 1.98 3 3 C7.29 3 11.58 3 16 3 C16 2.01 16 1.02 16 0 C17.32 0 18.64 0 20 0 C20 0.99 20 1.98 20 3 C22.64 3 25.28 3 28 3 C28 4.65 28 6.3 28 8 C27.35417969 8.23589844 26.70835937 8.47179687 26.04296875 8.71484375 C23.79368828 9.80729861 23.79368828 9.80729861 23.42578125 12.12890625 C23.38839844 12.93199219 23.35101563 13.73507812 23.3125 14.5625 C23.06779661 18.93220339 23.06779661 18.93220339 22 20 C19.32941149 20.14115161 16.67567762 20.04247107 14 20 C14 20.99 14 21.98 14 23 C14.78246094 22.91621094 15.56492188 22.83242188 16.37109375 22.74609375 C17.38300781 22.64425781 18.39492187 22.54242188 19.4375 22.4375 C20.44683594 22.33308594 21.45617187 22.22867187 22.49609375 22.12109375 C23.73552734 22.06115234 23.73552734 22.06115234 25 22 C25.33 22.33 25.66 22.66 26 23 C25.39655172 30.60344828 25.39655172 30.60344828 23 33 C20.8359375 32.9765625 20.8359375 32.9765625 18.375 32.625 C17.55773437 32.51414062 16.74046875 32.40328125 15.8984375 32.2890625 C15.27195313 32.19367188 14.64546875 32.09828125 14 32 C13.34 33.32 12.68 34.64 12 36 C11.01 36 10.02 36 9 36 C8.67 33.03 8.34 30.06 8 27 C7.45730469 27.3609375 6.91460937 27.721875 6.35546875 28.09375 C5.64003906 28.5578125 4.92460937 29.021875 4.1875 29.5 C3.47980469 29.9640625 2.77210938 30.428125 2.04296875 30.90625 C0 32 0 32 -3 32 C-2.83628906 31.48953125 -2.67257813 30.9790625 -2.50390625 30.453125 C-1.83301519 27.18708172 -1.9066544 24.0813253 -1.9375 20.75 C-1.94652344 19.48671875 -1.95554688 18.2234375 -1.96484375 16.921875 C-1.97644531 15.95765625 -1.98804688 14.9934375 -2 14 C-2.45375 14.825 -2.9075 15.65 -3.375 16.5 C-4.179375 17.7375 -4.179375 17.7375 -5 19 C-5.66 19 -6.32 19 -7 19 C-6.31471486 14.85713983 -5.02109557 11.15886187 -3.5 7.25 C-3.0565625 6.10015625 -2.613125 4.9503125 -2.15625 3.765625 C-1 1 -1 1 0 0 Z M14 6 C13.34 7.32 12.68 8.64 12 10 C15.3 10 18.6 10 22 10 C22 8.68 22 7.36 22 6 C19.36 6 16.72 6 14 6 Z M7 7 C4.08167457 11.06727245 3.66209564 13.84915617 3.8125 18.8125 C3.83957031 19.97394531 3.86664063 21.13539063 3.89453125 22.33203125 C3.92933594 23.21246094 3.96414062 24.09289062 4 25 C5.65 24.67 7.3 24.34 9 24 C9.05398987 21.72942623 9.09278742 19.45848712 9.125 17.1875 C9.14820313 15.92292969 9.17140625 14.65835937 9.1953125 13.35546875 C9.27581918 9.8661976 9.27581918 9.8661976 7 7 Z M15 13 C14.67 14.32 14.34 15.64 14 17 C15.32 17 16.64 17 18 17 C18 15.68 18 14.36 18 13 C17.01 13 16.02 13 15 13 Z M14 26 C14 26.99 14 27.98 14 29 C15.98 29 17.96 29 20 29 C20 28.01 20 27.02 20 26 C18.02 26 16.04 26 14 26 Z " fill="#CFAA36" transform="translate(149,287)"/>
<path d="M0 0 C1.65 0 3.3 0 5 0 C5 1.32 5 2.64 5 4 C9.62 4 14.24 4 19 4 C19 4.99 19 5.98 19 7 C14.38 7.33 9.76 7.66 5 8 C7.6915625 7.9690625 7.6915625 7.9690625 10.4375 7.9375 C12.29166122 7.9161878 14.14712498 7.92773498 16 8 C18.35241929 10.35241929 17.18542134 16.21543113 17.1875 19.375 C17.19974609 20.34695312 17.21199219 21.31890625 17.22460938 22.3203125 C17.22654297 23.25359375 17.22847656 24.186875 17.23046875 25.1484375 C17.23457764 26.00614746 17.23868652 26.86385742 17.24291992 27.74755859 C17 30 17 30 15 33 C14.01 33 13.02 33 12 33 C12 30.36 12 27.72 12 25 C9.36 25 6.72 25 4 25 C4 27.31 4 29.62 4 32 C2.02 32.495 2.02 32.495 0 33 C0 30.36 0 27.72 0 25 C-2.31 25 -4.62 25 -7 25 C-7 24.01 -7 23.02 -7 22 C-5.68 21.67 -4.36 21.34 -3 21 C-3.99 20.67 -4.98 20.34 -6 20 C-6 19.01 -6 18.02 -6 17 C-5.34 17 -4.68 17 -4 17 C-4.66 15.35 -5.32 13.7 -6 12 C-6.66 12 -7.32 12 -8 12 C-8 18.93 -8 25.86 -8 33 C-8.99 33 -9.98 33 -11 33 C-12.27861615 30.44276771 -12.11336609 28.63262898 -12.09765625 25.7734375 C-12.09443359 24.7421875 -12.09121094 23.7109375 -12.08789062 22.6484375 C-12.07951172 21.56820312 -12.07113281 20.48796875 -12.0625 19.375 C-12.05798828 18.28703125 -12.05347656 17.1990625 -12.04882812 16.078125 C-12.0370179 13.38539338 -12.01908205 10.69268991 -12 8 C-8.04 8.33 -4.08 8.66 0 9 C0 8.34 0 7.68 0 7 C-4.95 7 -9.9 7 -15 7 C-15 6.01 -15 5.02 -15 4 C-10.05 4 -5.1 4 0 4 C0 2.68 0 1.36 0 0 Z M-5 12 C-3.35 13.32 -1.7 14.64 0 16 C0.66 16.66 1.32 17.32 2 18 C2.5775 17.34 3.155 16.68 3.75 16 C6 14 6 14 10 14 C9.34 15.32 8.68 16.64 8 18 C8.99 18 9.98 18 11 18 C10.67 18.66 10.34 19.32 10 20 C6.9375 20.625 6.9375 20.625 4 21 C4 21.33 4 21.66 4 22 C6.64 22.33 9.28 22.66 12 23 C12 19.37 12 15.74 12 12 C6.39 12 0.78 12 -5 12 Z " fill="#D4B33C" transform="translate(157,216)"/>
<path d="M0 0 C4.00125 -0.020625 8.0025 -0.04125 12.125 -0.0625 C14.00082764 -0.07615601 14.00082764 -0.07615601 15.91455078 -0.09008789 C17.41477783 -0.09383423 17.41477783 -0.09383423 18.9453125 -0.09765625 C19.96125488 -0.10289307 20.97719727 -0.10812988 22.02392578 -0.11352539 C25.09114726 0.00347691 27.98633134 0.43223583 31 1 C31 1.66 31 2.32 31 3 C26.38 3 21.76 3 17 3 C16.67 3.99 16.34 4.98 16 6 C19.3 6.33 22.6 6.66 26 7 C26 7.99 26 8.98 26 10 C24.02 10 22.04 10 20 10 C19.67 11.32 19.34 12.64 19 14 C22.63 14 26.26 14 30 14 C30 14.99 30 15.98 30 17 C26.37 17.33 22.74 17.66 19 18 C20.65 18.66 22.3 19.32 24 20 C25.94185022 21.85075108 27.36581907 23.85221935 29 26 C27.35 26.33 25.7 26.66 24 27 C22.35 25.02 20.7 23.04 19 21 C15.25464401 22 15.25464401 22 11 27 C17.6 27.33 24.2 27.66 31 28 C31 28.66 31 29.32 31 30 C15.655 30.495 15.655 30.495 0 31 C0 20.77 0 10.54 0 0 Z M5 3 C5 6.3 5 9.6 5 13 C8.48331435 9.98112756 9.79157144 7.43090471 11 3 C9.02 3 7.04 3 5 3 Z M12 10 C10.22590192 11.92022703 10.22590192 11.92022703 9 14 C10.98 14 12.96 14 15 14 C15.33 12.68 15.66 11.36 16 10 C14.68 10 13.36 10 12 10 Z M5 17 C4.67 20.63 4.34 24.26 4 28 C8.6676235 25.24185884 11.22320562 22.80599027 14 18 C14 17.67 14 17.34 14 17 C11.03 17 8.06 17 5 17 Z " fill="#CCAC3A" transform="translate(144,253)"/>
<path d="M0 0 C4.29425875 1.07356469 4.74740471 1.5084773 7 5 C7.33 3.35 7.66 1.7 8 0 C9.32 0 10.64 0 12 0 C12.33 3.63 12.66 7.26 13 11 C13.5775 9.370625 14.155 7.74125 14.75 6.0625 C15.734375 3.28515625 15.734375 3.28515625 17 1 C18.32 0.67 19.64 0.34 21 0 C23.475 5.445 23.475 5.445 26 11 C26.66 7.37 27.32 3.74 28 0 C29.32 0 30.64 0 32 0 C32.99 1.98 33.98 3.96 35 6 C35.99 4.02 36.98 2.04 38 0 C39.32 0 40.64 0 42 0 C42.66 4.62 43.32 9.24 44 14 C42.68 14 41.36 14 40 14 C39.505 12.02 39.505 12.02 39 10 C38.01 11.32 37.02 12.64 36 14 C33 13 33 13 31 11 C30.67 11.99 30.34 12.98 30 14 C27.36 14 24.72 14 22 14 C22 13.34 22 12.68 22 12 C20.35 12 18.7 12 17 12 C17 12.66 17 13.32 17 14 C13.9465865 14.29359745 11.04256578 14.4451258 8 14 C5.4375 11.5 5.4375 11.5 4 9 C3.67 10.65 3.34 12.3 3 14 C2.01 14 1.02 14 0 14 C0 9.38 0 4.76 0 0 Z M19 6 C20 9 20 9 20 9 Z " fill="#CCA834" transform="translate(172,341)"/>
<path d="M0 0 C3.22963643 1.87038075 6.13439448 3.88332725 9.0625 6.1875 C14.8693907 10.349105 21.27463141 12.6795736 27.95532227 15.07104492 C33.00414918 16.93825927 36.58941951 18.62377323 40 23 C40.8125 26.8125 40.8125 26.8125 41 30 C24.36155752 26.0563511 9.50884099 16.28982249 0 2 C0 1.34 0 0.68 0 0 Z " fill="#CEA822" transform="translate(237,276)"/>
<path d="M0 0 C3.96 0 7.92 0 12 0 C12.33 0.99 12.66 1.98 13 3 C10.36 3.33 7.72 3.66 5 4 C4.67 5.65 4.34 7.3 4 9 C6.97 9 9.94 9 13 9 C12.67 9.99 12.34 10.98 12 12 C11.85507877 13.40664926 11.75371069 14.8181133 11.68359375 16.23046875 C11.64169922 17.03291016 11.59980469 17.83535156 11.55664062 18.66210938 C11.51732422 19.49548828 11.47800781 20.32886719 11.4375 21.1875 C11.39431641 22.03248047 11.35113281 22.87746094 11.30664062 23.74804688 C11.20068482 25.83184433 11.0998498 27.91590103 11 30 C9.02 30.99 9.02 30.99 7 32 C7 25.4 7 18.8 7 12 C6.01 12 5.02 12 4 12 C4.03480469 12.72445312 4.06960937 13.44890625 4.10546875 14.1953125 C4.26456153 19.87719737 4.38075548 24.17034931 1 29 C-2.3 32 -2.3 32 -5 32 C-5 28.04 -5 24.08 -5 20 C-4.01 20 -3.02 20 -2 20 C-1.67 20.99 -1.34 21.98 -1 23 C-0.67 15.41 -0.34 7.82 0 0 Z " fill="#CFAE3B" transform="translate(163,182)"/>
<path d="M0 0 C1.32 0 2.64 0 4 0 C4 0.99 4 1.98 4 3 C6.97 3.495 6.97 3.495 10 4 C8.125 9.75 8.125 9.75 7 12 C8.32 12.33 9.64 12.66 11 13 C10.67 13.99 10.34 14.98 10 16 C8.02 16 6.04 16 4 16 C4.33 16.66 4.66 17.32 5 18 C6.65 18 8.3 18 10 18 C10.33 18.99 10.66 19.98 11 21 C8.69 21 6.38 21 4 21 C4 24.96 4 28.92 4 33 C2.68 33.66 1.36 34.32 0 35 C-0.33 30.71 -0.66 26.42 -1 22 C-3.31 21.67 -5.62 21.34 -8 21 C-7.505 19.515 -7.505 19.515 -7 18 C-5.02 18 -3.04 18 -1 18 C-0.67 17.34 -0.34 16.68 0 16 C-2.31 16 -4.62 16 -7 16 C-6.67 14.68 -6.34 13.36 -6 12 C-5.34 12 -4.68 12 -4 12 C-4.144375 11.443125 -4.28875 10.88625 -4.4375 10.3125 C-5.02769128 7.88615805 -5.523429 5.45093655 -6 3 C-4.02 3 -2.04 3 0 3 C0 2.01 0 1.02 0 0 Z M-3 6 C-1.35 7.65 0.3 9.3 2 11 C2.66 9.35 3.32 7.7 4 6 C1.69 6 -0.62 6 -3 6 Z " fill="#CDA728" transform="translate(151,179)"/>
<path d="M0 0 C4.00125 -0.020625 8.0025 -0.04125 12.125 -0.0625 C14.00082764 -0.07615601 14.00082764 -0.07615601 15.91455078 -0.09008789 C17.41477783 -0.09383423 17.41477783 -0.09383423 18.9453125 -0.09765625 C19.96125488 -0.10289307 20.97719727 -0.10812988 22.02392578 -0.11352539 C25.09114726 0.00347691 27.98633134 0.43223583 31 1 C31 1.66 31 2.32 31 3 C26.38 3 21.76 3 17 3 C16.67 3.99 16.34 4.98 16 6 C19.3 6.33 22.6 6.66 26 7 C26 7.99 26 8.98 26 10 C24.02 10 22.04 10 20 10 C19.67 11.32 19.34 12.64 19 14 C22.63 14 26.26 14 30 14 C29.67 14.99 29.34 15.98 29 17 C29 16.34 29 15.68 29 15 C27.91730835 15.00785522 27.91730835 15.00785522 26.81274414 15.01586914 C23.56267151 15.03657358 20.31261272 15.04963918 17.0625 15.0625 C15.35803711 15.07506836 15.35803711 15.07506836 13.61914062 15.08789062 C12.53955078 15.09111328 11.45996094 15.09433594 10.34765625 15.09765625 C8.84730835 15.10551147 8.84730835 15.10551147 7.31665039 15.11352539 C5 15 5 15 4 14 C3.92741054 11.81360547 3.91626217 9.62499611 3.9375 7.4375 C3.94652344 6.23996094 3.95554688 5.04242188 3.96484375 3.80859375 C3.97644531 2.88175781 3.98804688 1.95492187 4 1 C3.01 1 2.02 1 1 1 C1 10.57 1 20.14 1 30 C1.66 30.33 2.32 30.66 3 31 C2.01 31 1.02 31 0 31 C0 20.77 0 10.54 0 0 Z M5 3 C5 6.3 5 9.6 5 13 C8.48331435 9.98112756 9.79157144 7.43090471 11 3 C9.02 3 7.04 3 5 3 Z M12 10 C10.22590192 11.92022703 10.22590192 11.92022703 9 14 C10.98 14 12.96 14 15 14 C15.33 12.68 15.66 11.36 16 10 C14.68 10 13.36 10 12 10 Z " fill="#CEAD4D" transform="translate(144,253)"/>
<path d="M0 0 C1.32 0 2.64 0 4 0 C4 1.65 4 3.3 4 5 C5.32 5 6.64 5 8 5 C8 3.35 8 1.7 8 0 C9.32 0.33 10.64 0.66 12 1 C12.33 3.97 12.66 6.94 13 10 C14.32 6.7 15.64 3.4 17 0 C18.32 0 19.64 0 21 0 C21.83764268 1.95649397 22.66999059 3.91525556 23.5 5.875 C23.9640625 6.96554687 24.428125 8.05609375 24.90625 9.1796875 C26 12 26 12 26 14 C25.36191406 13.91621094 24.72382813 13.83242188 24.06640625 13.74609375 C23.24011719 13.64425781 22.41382813 13.54242188 21.5625 13.4375 C20.73878906 13.33308594 19.91507812 13.22867187 19.06640625 13.12109375 C18.04353516 13.06115234 18.04353516 13.06115234 17 13 C16.67 13.33 16.34 13.66 16 14 C13.32941149 14.14115161 10.67567762 14.04247107 8 14 C8 12.35 8 10.7 8 9 C6.68 9 5.36 9 4 9 C4 10.65 4 12.3 4 14 C2.68 14 1.36 14 0 14 C0 9.38 0 4.76 0 0 Z M19 7 C18.67 7.66 18.34 8.32 18 9 C18.66 9 19.32 9 20 9 C19.67 8.34 19.34 7.68 19 7 Z " fill="#CEA82C" transform="translate(312,341)"/>
<path d="M0 0 C3.5579421 0.62487155 6.75676222 1.57797709 10.125 2.875 C14.01349943 4.34106938 17.83244413 5.48149017 21.875 6.4375 C26.46927376 7.64513767 29.11575908 9.05820407 32 13 C32.8125 15.3125 32.8125 15.3125 33 17 C27.16123244 16.48577187 22.40738295 15.31894809 17.0625 12.9375 C16.37027344 12.63312012 15.67804688 12.32874023 14.96484375 12.01513672 C9.12202635 9.31392783 4.27490591 5.86864284 0 1 C0 0.67 0 0.34 0 0 Z " fill="#CBA62F" transform="translate(240,272)"/>
<path d="M0 0 C1.32 0 2.64 0 4 0 C4.99 1.98 5.98 3.96 7 6 C7.99 4.02 8.98 2.04 10 0 C11.32 0 12.64 0 14 0 C14.66 4.62 15.32 9.24 16 14 C14.68 14 13.36 14 12 14 C11.34 12.68 10.68 11.36 10 10 C9.34 11.32 8.68 12.64 8 14 C5 13 5 13 3 10 C2.67 11.32 2.34 12.64 2 14 C0.68 14 -0.64 14 -2 14 C-1.85795259 12.41632253 -1.71119847 10.83306682 -1.5625 9.25 C-1.48128906 8.36828125 -1.40007812 7.4865625 -1.31640625 6.578125 C-1.03761535 4.30649548 -0.61209423 2.20148177 0 0 Z " fill="#CDA82E" transform="translate(223,341)"/>
<path d="M0 0 C0.99 0 1.98 0 3 0 C3 0.99 3 1.98 3 3 C4.65 3 6.3 3 8 3 C8 3.66 8 4.32 8 5 C6.35 5 4.7 5 3 5 C3.33773437 5.66386719 3.67546875 6.32773437 4.0234375 7.01171875 C5.24011485 10.73475145 4.99139987 13.98362138 4.625 17.8125 C4.56828125 18.50537109 4.5115625 19.19824219 4.453125 19.91210938 C4.31269396 21.60898446 4.15780593 23.30465248 4 25 C4.66 25.33 5.32 25.66 6 26 C4.35 26.66 2.7 27.32 1 28 C1 22.72 1 17.44 1 12 C-2.84188612 15.4202491 -2.84188612 15.4202491 -4 18 C-4.66 18 -5.32 18 -6 18 C-5.31583566 13.82423832 -3.98634991 10.11919593 -2.4375 6.1875 C-1.75494141 4.44533203 -1.75494141 4.44533203 -1.05859375 2.66796875 C-0.70925781 1.78753906 -0.35992187 0.90710938 0 0 Z " fill="#CEA623" transform="translate(148,288)"/>
<path d="M0 0 C1.65 0 3.3 0 5 0 C5 1.32 5 2.64 5 4 C9.62 4 14.24 4 19 4 C19 4.99 19 5.98 19 7 C14.38 7.33 9.76 7.66 5 8 C4.67 8.99 4.34 9.98 4 11 C3.01 11 2.02 11 1 11 C1 9.68 1 8.36 1 7 C-4.28 7 -9.56 7 -15 7 C-15 6.01 -15 5.02 -15 4 C-10.05 4 -5.1 4 0 4 C0 2.68 0 1.36 0 0 Z " fill="#CDAF4A" transform="translate(157,216)"/>
<path d="M0 0 C1.32 0 2.64 0 4 0 C6.25 3 6.25 3 8 6 C8.33 4.02 8.66 2.04 9 0 C9.99 0 10.98 0 12 0 C12 4.62 12 9.24 12 14 C10.68 14 9.36 14 8 14 C6.25 12 6.25 12 5 10 C4.67 11.32 4.34 12.64 4 14 C2.68 14 1.36 14 0 14 C0 9.38 0 4.76 0 0 Z " fill="#CCAC4A" transform="translate(153,341)"/>
<path d="M0 0 C9.36486486 0.36486486 9.36486486 0.36486486 12.1875 3.1875 C13.16521117 6.57188481 12.97361063 8.62980934 12 12 C10 14 10 14 7.6171875 14.1953125 C6.71226562 14.17210937 5.80734375 14.14890625 4.875 14.125 C2.461875 14.063125 2.461875 14.063125 0 14 C0 9.38 0 4.76 0 0 Z M4 4 C4 5.98 4 7.96 4 10 C5.32 10 6.64 10 8 10 C8.6814823 8.10820797 8.6814823 8.10820797 9 6 C8.34 5.34 7.68 4.68 7 4 C6.01 4 5.02 4 4 4 Z " fill="#CEA931" transform="translate(250,341)"/>
<path d="M0 0 C2 2 2 2 2 5 C-0.64 4.67 -3.28 4.34 -6 4 C-6.33 5.32 -6.66 6.64 -7 8 C-5.10820797 8.6814823 -5.10820797 8.6814823 -3 9 C-2.34 8.34 -1.68 7.68 -1 7 C-0.01 7 0.98 7 2 7 C1.6875 9.375 1.6875 9.375 1 12 C-2 14 -2 14 -5.5 13.875 C-9 13 -9 13 -11 11.375 C-12.46981805 7.88418213 -11.98413921 5.60851044 -11 2 C-7.79544215 -1.94407121 -4.63413823 -1.11562587 0 0 Z " fill="#CBA935" transform="translate(281,342)"/>
<path d="M0 0 C1.8125 2.5 1.8125 2.5 3 5 C1.35 5 -0.3 5 -2 5 C-0.35 5.99 1.3 6.98 3 8 C2.67 9.98 2.34 11.96 2 14 C-4.43487859 15.33554084 -4.43487859 15.33554084 -7 13.8125 C-8 12 -8 12 -7.625 10.125 C-7.41875 9.42375 -7.2125 8.7225 -7 8 C-7.20625 7.154375 -7.4125 6.30875 -7.625 5.4375 C-8 3 -8 3 -6.875 1.1875 C-4.32388656 -0.42820518 -2.9610645 -0.5922129 0 0 Z M-4 9 C-3.67 9.66 -3.34 10.32 -3 11 C-2.34 10.67 -1.68 10.34 -1 10 C-1.99 9.67 -2.98 9.34 -4 9 Z " fill="#D0AD31" transform="translate(143,341)"/>
<path d="M0 0 C1.32 0 2.64 0 4 0 C4 0.99 4 1.98 4 3 C6.97 3.495 6.97 3.495 10 4 C8.25 9.75 8.25 9.75 6 12 C6 11.01 6 10.02 6 9 C5.34 9 4.68 9 4 9 C3.566875 9.8971875 3.566875 9.8971875 3.125 10.8125 C2 13 2 13 0 16 C-3.625 16.1875 -3.625 16.1875 -7 16 C-6.67 14.68 -6.34 13.36 -6 12 C-5.34 12 -4.68 12 -4 12 C-4.144375 11.443125 -4.28875 10.88625 -4.4375 10.3125 C-5.02769128 7.88615805 -5.523429 5.45093655 -6 3 C-4.02 3 -2.04 3 0 3 C0 2.01 0 1.02 0 0 Z M-3 6 C-1.35 7.65 0.3 9.3 2 11 C2.66 9.35 3.32 7.7 4 6 C1.69 6 -0.62 6 -3 6 Z " fill="#D4B23E" transform="translate(151,179)"/>
<path d="M0 0 C0.02894547 3.45831586 0.04678 6.91660072 0.0625 10.375 C0.07087891 11.35984375 0.07925781 12.3446875 0.08789062 13.359375 C0.09111328 14.30039063 0.09433594 15.24140625 0.09765625 16.2109375 C0.10289307 17.08024902 0.10812988 17.94956055 0.11352539 18.84521484 C0 21 0 21 -1 23 C-1.99 23 -2.98 23 -4 23 C-4.797837 16.30386804 -5.12910853 9.74233419 -5 3 C-7.31 2.34 -9.62 1.68 -12 1 C-12 0.67 -12 0.34 -12 0 C-4.265625 -1.16015625 -4.265625 -1.16015625 0 0 Z " fill="#C8A539" transform="translate(174,225)"/>
<path d="M0 0 C1.32 0 2.64 0 4 0 C4.83764268 1.95649397 5.66999059 3.91525556 6.5 5.875 C6.9640625 6.96554687 7.428125 8.05609375 7.90625 9.1796875 C9 12 9 12 9 14 C8.40832031 13.91621094 7.81664062 13.83242188 7.20703125 13.74609375 C6.41683594 13.64425781 5.62664062 13.54242188 4.8125 13.4375 C3.64654297 13.28087891 3.64654297 13.28087891 2.45703125 13.12109375 C-0.19912494 12.99018621 -2.42241629 13.3819293 -5 14 C-4.54636829 12.41531323 -4.08688548 10.83230076 -3.625 9.25 C-3.36976563 8.36828125 -3.11453125 7.4865625 -2.8515625 6.578125 C-2.0790066 4.23919428 -1.16374324 2.16557438 0 0 Z M1 7 C2 9 2 9 2 9 Z " fill="#CEAB2D" transform="translate(288,341)"/>
<path d="M0 0 C2.97 0 5.94 0 9 0 C9 1.32 9 2.64 9 4 C7.35 4 5.7 4 4 4 C4 4.66 4 5.32 4 6 C5.32 6 6.64 6 8 6 C8 6.99 8 7.98 8 9 C6.68 9 5.36 9 4 9 C4 9.66 4 10.32 4 11 C5.65 11 7.3 11 9 11 C9 11.99 9 12.98 9 14 C6.03 14 3.06 14 0 14 C0 9.38 0 4.76 0 0 Z " fill="#CBA839" transform="translate(240,341)"/>
<path d="M0 0 C0.99 0 1.98 0 3 0 C3 9.57 3 19.14 3 29 C2.01 29 1.02 29 0 29 C0 19.43 0 9.86 0 0 Z " fill="#CBA523" transform="translate(145,254)"/>
<path d="M0 0 C3.3 0 6.6 0 10 0 C10 0.33 10 0.66 10 1 C8.02 1.33 6.04 1.66 4 2 C3.67 8.93 3.34 15.86 3 23 C2.01 23 1.02 23 0 23 C0 15.41 0 7.82 0 0 Z " fill="#CEA82C" transform="translate(146,226)"/>
<path d="M0 0 C1.32 0.66 2.64 1.32 4 2 C3.01 2.66 2.02 3.32 1 4 C7.6 4.33 14.2 4.66 21 5 C21 5.66 21 6.32 21 7 C12.09 7 3.18 7 -6 7 C-4.11656068 3.23312136 -3.30867531 2.20578354 0 0 Z " fill="#CCAF41" transform="translate(154,276)"/>
<path d="M0 0 C1.42194153 0.00399422 2.8438839 0.01876348 4.265625 0.04296875 C5.32136719 0.04393555 5.32136719 0.04393555 6.3984375 0.04492188 C10.53663931 0.07953509 14.44038165 0.42951683 18.515625 1.23046875 C18.515625 1.89046875 18.515625 2.55046875 18.515625 3.23046875 C13.895625 3.23046875 9.275625 3.23046875 4.515625 3.23046875 C4.515625 3.89046875 4.515625 4.55046875 4.515625 5.23046875 C2.535625 5.23046875 0.555625 5.23046875 -1.484375 5.23046875 C-1.484375 4.57046875 -1.484375 3.91046875 -1.484375 3.23046875 C-2.804375 2.90046875 -4.124375 2.57046875 -5.484375 2.23046875 C-3.484375 0.23046875 -3.484375 0.23046875 0 0 Z " fill="#DCC133" transform="translate(156.484375,252.76953125)"/>
<path d="M0 0 C1.32 0 2.64 0 4 0 C4 3.63 4 7.26 4 11 C5.65 11 7.3 11 9 11 C9 11.99 9 12.98 9 14 C6.03 14 3.06 14 0 14 C0 9.38 0 4.76 0 0 Z " fill="#CBAC47" transform="translate(339,341)"/>
<path d="M0 0 C1.32 0.33 2.64 0.66 4 1 C4 4.3 4 7.6 4 11 C5.65 11 7.3 11 9 11 C9 11.99 9 12.98 9 14 C6.03 14 3.06 14 0 14 C0 9.38 0 4.76 0 0 Z " fill="#CBA832" transform="translate(298,341)"/>
<path d="M0 0 C1.32 0.33 2.64 0.66 4 1 C4 4.3 4 7.6 4 11 C5.65 11 7.3 11 9 11 C9 11.99 9 12.98 9 14 C6.03 14 3.06 14 0 14 C0 9.38 0 4.76 0 0 Z " fill="#C9A939" transform="translate(349,341)"/>
<path d="M0 0 C5.94 0 11.88 0 18 0 C18.33 1.32 18.66 2.64 19 4 C17.125 4.625 17.125 4.625 15 5 C14.34 4.34 13.68 3.68 13 3 C7.66962333 2.34854946 7.66962333 2.34854946 3.125 4.5 C2.75375 4.995 2.3825 5.49 2 6 C1.34 6 0.68 6 0 6 C0 4.02 0 2.04 0 0 Z " fill="#CFA825" transform="translate(158,291)"/>
<path d="M0 0 C0.99 0 1.98 0 3 0 C3 6.27 3 12.54 3 19 C2.01 19.33 1.02 19.66 0 20 C0 13.4 0 6.8 0 0 Z " fill="#CAA72A" transform="translate(170,194)"/>
<path d="M0 0 C1.32 0 2.64 0 4 0 C4 4.62 4 9.24 4 14 C2.68 14 1.36 14 0 14 C0 9.38 0 4.76 0 0 Z " fill="#D1AA34" transform="translate(264,341)"/>
<path d="M0 0 C1.32 0 2.64 0 4 0 C4 4.62 4 9.24 4 14 C2.68 14 1.36 14 0 14 C0 9.38 0 4.76 0 0 Z " fill="#CFAA3D" transform="translate(147,341)"/>
<path d="M0 0 C1.9375 0.3125 1.9375 0.3125 4 1 C5.231394 4.69418201 4.64432764 7.2056261 4 11 C1.36 10.67 -1.28 10.34 -4 10 C-4 9.01 -4 8.02 -4 7 C-2.68 6.67 -1.36 6.34 0 6 C-0.99 5.67 -1.98 5.34 -3 5 C-3 4.01 -3 3.02 -3 2 C-2.01 2 -1.02 2 0 2 C0 1.34 0 0.68 0 0 Z " fill="#D8BC35" transform="translate(154,231)"/>
<path d="M0 0 C2.97 0 5.94 0 9 0 C7.02 0.99 7.02 0.99 5 2 C5.53625 2.556875 6.0725 3.11375 6.625 3.6875 C7.07875 4.450625 7.5325 5.21375 8 6 C7.1875 8.75 7.1875 8.75 6 11 C3.69 11 1.38 11 -1 11 C-0.67 9.68 -0.34 8.36 0 7 C0.66 7 1.32 7 2 7 C1.42415568 4.61435923 0.77772405 2.33317216 0 0 Z " fill="#D6BC45" transform="translate(145,184)"/>
<path d="M0 0 C0.99 0 1.98 0 3 0 C3 4.62 3 9.24 3 14 C1.68 14 0.36 14 -1 14 C-1.33 12.02 -1.66 10.04 -2 8 C-1.34 8 -0.68 8 0 8 C0 5.36 0 2.72 0 0 Z " fill="#CEA735" transform="translate(162,341)"/>
<path d="M0 0 C2.31 0.66 4.62 1.32 7 2 C7 2.66 7 3.32 7 4 C8.32 4.33 9.64 4.66 11 5 C10.01 5 9.02 5 8 5 C7.67 5.99 7.34 6.98 7 8 C2.545 7.01 2.545 7.01 -2 6 C-2 4.68 -2 3.36 -2 2 C-1.34 2 -0.68 2 0 2 C0 1.34 0 0.68 0 0 Z " fill="#CFA920" transform="translate(255,277)"/>
<path d="M0 0 C0.99 0.33 1.98 0.66 3 1 C2.67 1.99 2.34 2.98 2 4 C3.65 4 5.3 4 7 4 C6.67 5.65 6.34 7.3 6 9 C5.34 8.01 4.68 7.02 4 6 C3.2575 6.309375 2.515 6.61875 1.75 6.9375 C-0.50692176 7.8094925 -2.6450153 8.47667007 -5 9 C-4.37315423 6.07471973 -3.51695295 3.58774327 -2 1 C-1.34 0.67 -0.68 0.34 0 0 Z " fill="#CBAA3E" transform="translate(156,257)"/>
<path d="M0 0 C3.3014505 1.42429834 5.35798194 3.13936871 7.75 5.8125 C8.36359375 6.47894531 8.9771875 7.14539063 9.609375 7.83203125 C11.27285439 10.42537692 11.27440795 11.97623542 11 15 C10.34 15 9.68 15 9 15 C9 14.34 9 13.68 9 13 C8.01 12.67 7.02 12.34 6 12 C5.67 11.01 5.34 10.02 5 9 C5.33 8.34 5.66 7.68 6 7 C5.01 7 4.02 7 3 7 C0 2.77777778 0 2.77777778 0 0 Z " fill="#CDA727" transform="translate(269,208)"/>
<path d="M0 0 C2.31 0 4.62 0 7 0 C7 0.66 7 1.32 7 2 C5.68 2 4.36 2 3 2 C3 2.99 3 3.98 3 5 C4.32 5 5.64 5 7 5 C7 5.99 7 6.98 7 8 C5.68 8 4.36 8 3 8 C2.67 8.66 2.34 9.32 2 10 C1.34 10 0.68 10 0 10 C0 6.7 0 3.4 0 0 Z " fill="#CFA724" transform="translate(241,342)"/>
<path d="M0 0 C5.40489519 1.52012677 8.98492628 5.27385218 13 9 C12.01 9.495 12.01 9.495 11 10 C9 9 7 8 5 7 C4.01 7.495 4.01 7.495 3 8 C3 7.34 3 6.68 3 6 C2.34 6 1.68 6 1 6 C0.67 4.02 0.34 2.04 0 0 Z " fill="#CEAB2B" transform="translate(331,178)"/>
<path d="M0 0 C0.66 0 1.32 0 2 0 C2 5.94 2 11.88 2 18 C1.01 18 0.02 18 -1 18 C-1.18451025 5.33029613 -1.18451025 5.33029613 0 0 Z " fill="#CEA31E" transform="translate(171,230)"/>
<path d="M0 0 C0.99 0 1.98 0 3 0 C3 0.99 3 1.98 3 3 C7.29 3 11.58 3 16 3 C16 2.01 16 1.02 16 0 C17.32 0 18.64 0 20 0 C20 0.99 20 1.98 20 3 C22.64 3 25.28 3 28 3 C27.67 4.32 27.34 5.64 27 7 C27 6.01 27 5.02 27 4 C25.69804687 4.08378906 24.39609375 4.16757812 23.0546875 4.25390625 C21.32814604 4.3571234 19.6015823 4.45996835 17.875 4.5625 C16.59109375 4.64661133 16.59109375 4.64661133 15.28125 4.73242188 C10.67818141 4.99798352 6.54180454 5.00515346 2 4 C2 3.01 2 2.02 2 1 C1.34 0.67 0.68 0.34 0 0 Z " fill="#CEB04F" transform="translate(149,287)"/>
<path d="M0 0 C1.98 0 3.96 0 6 0 C6.66 1.32 7.32 2.64 8 4 C10.31 4 12.62 4 15 4 C15.33 3.01 15.66 2.02 16 1 C16 3.31 16 5.62 16 8 C11.85701333 7.40165275 8.81805623 5.99335715 5.1875 3.9375 C4.21167969 3.38964844 3.23585938 2.84179688 2.23046875 2.27734375 C1.49441406 1.85582031 0.75835937 1.43429687 0 1 C0 0.67 0 0.34 0 0 Z " fill="#C9AA3B" transform="translate(262,315)"/>
<path d="M0 0 C4.60726548 2.59158683 8.93027462 5.62707624 13 9 C13 9.33 13 9.66 13 10 C11.02 10.33 9.04 10.66 7 11 C5.82750647 9.54634731 4.66216184 8.08692581 3.5 6.625 C2.52546875 5.40683594 2.52546875 5.40683594 1.53125 4.1640625 C0 2 0 2 0 0 Z " fill="#C7AC3B" transform="translate(237,276)"/>
<path d="M0 0 C0.9075 0.226875 1.815 0.45375 2.75 0.6875 C2.42 1.6775 2.09 2.6675 1.75 3.6875 C-0.23 3.6875 -2.21 3.6875 -4.25 3.6875 C-3.92 4.3475 -3.59 5.0075 -3.25 5.6875 C-1.6 5.6875 0.05 5.6875 1.75 5.6875 C2.08 6.6775 2.41 7.6675 2.75 8.6875 C0.44 8.6875 -1.87 8.6875 -4.25 8.6875 C-4.37375 7.883125 -4.4975 7.07875 -4.625 6.25 C-4.934375 4.9815625 -4.934375 4.9815625 -5.25 3.6875 C-5.91 3.3575 -6.57 3.0275 -7.25 2.6875 C-4.61280971 0.1517401 -3.74095095 -0.35970682 0 0 Z " fill="#D4B83A" transform="translate(159.25,191.3125)"/>
<path d="M0 0 C3.63 0.66 7.26 1.32 11 2 C10.67 2.66 10.34 3.32 10 4 C8.02 4 6.04 4 4 4 C3.67 4.99 3.34 5.98 3 7 C2.01 7 1.02 7 0 7 C0 4.69 0 2.38 0 0 Z " fill="#C7A62B" transform="translate(159,315)"/>
<path d="M0 0 C0.33 0 0.66 0 1 0 C1.5073946 6.59612984 -0.36039816 12.54059724 -4 18 C-4.66 18 -5.32 18 -6 18 C-5.31583566 13.82423832 -3.98634991 10.11919593 -2.4375 6.1875 C-1.75494141 4.44533203 -1.75494141 4.44533203 -1.05859375 2.66796875 C-0.70925781 1.78753906 -0.35992187 0.90710938 0 0 Z " fill="#C9AB39" transform="translate(148,288)"/>
<path d="M0 0 C0.33 3.3 0.66 6.6 1 10 C-0.32 10.33 -1.64 10.66 -3 11 C-3.125 4.25 -3.125 4.25 -2 2 C-3.32 1.67 -4.64 1.34 -6 1 C-3.92446352 0.4465236 -2.15634036 0 0 0 Z " fill="#CCAA39" transform="translate(160,238)"/>
<path d="M0 0 C0.33 0 0.66 0 1 0 C1 3.63 1 7.26 1 11 C-0.98 11.99 -0.98 11.99 -3 13 C-3.31563182 7.73946963 -2.66590937 4.55426184 0 0 Z " fill="#CCAB39" transform="translate(154,201)"/>
<path d="M0 0 C1.32 0.33 2.64 0.66 4 1 C4.625 4.375 4.625 4.375 5 8 C4.34 8.66 3.68 9.32 3 10 C3 9.01 3 8.02 3 7 C2.01 7 1.02 7 0 7 C0 4.69 0 2.38 0 0 Z " fill="#D2A629" transform="translate(201,342)"/>
<path d="M0 0 C0 1.65 0 3.3 0 5 C0.66 5 1.32 5 2 5 C2 6.65 2 8.3 2 10 C1.01 9.67 0.02 9.34 -1 9 C-1.6875 6.9375 -1.6875 6.9375 -2 5 C-2.99 5 -3.98 5 -5 5 C-5 3.68 -5 2.36 -5 1 C-3 0 -3 0 0 0 Z " fill="#CFA424" transform="translate(193,343)"/>
<path d="M0 0 C0.99 0 1.98 0 3 0 C4.42857143 8.57142857 4.42857143 8.57142857 2 12 C1.34 12 0.68 12 0 12 C0 8.04 0 4.08 0 0 Z " fill="#CFAC3B" transform="translate(158,202)"/>
<path d="M0 0 C1 1 1 1 1.0625 3.5625 C1.041875 4.366875 1.02125 5.17125 1 6 C0.34 6 -0.32 6 -1 6 C-1 4.68 -1 3.36 -1 2 C-4.11785113 2.64644661 -4.11785113 2.64644661 -5 5 C-6.32 4.34 -7.64 3.68 -9 3 C-9 2.34 -9 1.68 -9 1 C-5.92954549 0.0902357 -3.20049657 -0.17299981 0 0 Z " fill="#CBAA43" transform="translate(174,309)"/>
<path d="M0 0 C0 2.64 0 5.28 0 8 C-1.65 8.33 -3.3 8.66 -5 9 C-4.34 8.67 -3.68 8.34 -3 8 C-3 6.35 -3 4.7 -3 3 C-3.99 3 -4.98 3 -6 3 C-6 2.34 -6 1.68 -6 1 C-3 0 -3 0 0 0 Z " fill="#CDA823" transform="translate(171,297)"/>
<path d="M0 0 C0.99 0.66 1.98 1.32 3 2 C2.34 3.32 1.68 4.64 1 6 C-0.66666667 6 -2.33333333 6 -4 6 C-4 5.01 -4 4.02 -4 3 C-4.66 2.67 -5.32 2.34 -6 2 C-2.25 0.875 -2.25 0.875 0 2 C0 1.34 0 0.68 0 0 Z " fill="#D7B233" transform="translate(156,291)"/>
<path d="M0 0 C1.32 0 2.64 0 4 0 C4.33 1.98 4.66 3.96 5 6 C1.37 5.67 -2.26 5.34 -6 5 C-5.67 4.34 -5.34 3.68 -5 3 C-3.35 3 -1.7 3 0 3 C0 2.01 0 1.02 0 0 Z " fill="#CAAE39" transform="translate(151,179)"/>
<path d="M0 0 C4.62 0 9.24 0 14 0 C14 0.99 14 1.98 14 3 C12.04233719 3.08082094 10.08373272 3.13910778 8.125 3.1875 C6.48917969 3.23970703 6.48917969 3.23970703 4.8203125 3.29296875 C3.88960937 3.19628906 2.95890625 3.09960938 2 3 C1.34 2.01 0.68 1.02 0 0 Z " fill="#CBB25D" transform="translate(162,220)"/>
<path d="M0 0 C0.99 0 1.98 0 3 0 C3 3.3 3 6.6 3 10 C2.01 10 1.02 10 0 10 C-0.74926071 6.33694766 -1.2380014 3.57644848 0 0 Z " fill="#CCA522" transform="translate(158,217)"/>
<path d="M0 0 C2.18975773 3.28463659 2.99806563 6.20696275 4 10 C-0.75 9.25 -0.75 9.25 -3 7 C-1.68 6.67 -0.36 6.34 1 6 C0.67 4.02 0.34 2.04 0 0 Z " fill="#CFA53C" transform="translate(334,345)"/>
<path d="M0 0 C1.32 0.33 2.64 0.66 4 1 C4.33 2.65 4.66 4.3 5 6 C4.34 6 3.68 6 3 6 C2.67 6.66 2.34 7.32 2 8 C1.34 8 0.68 8 0 8 C0 5.36 0 2.72 0 0 Z " fill="#CFA428" transform="translate(154,342)"/>
<path d="M0 0 C0.66 0 1.32 0 2 0 C1.88601335 1.62580966 1.75844341 3.25067157 1.625 4.875 C1.52058594 6.23238281 1.52058594 6.23238281 1.4140625 7.6171875 C1 10 1 10 -1 12 C-1.22162329 10.37675914 -1.42689803 8.751279 -1.625 7.125 C-1.74101562 6.22007812 -1.85703125 5.31515625 -1.9765625 4.3828125 C-1.98429687 3.59648437 -1.99203125 2.81015625 -2 2 C-1.34 1.34 -0.68 0.68 0 0 Z " fill="#D1B32E" transform="translate(323,220)"/>
<path d="M0 0 C4.29 0 8.58 0 13 0 C8 4 8 4 5.76171875 3.953125 C3.84114583 3.30208333 1.92057292 2.65104167 0 2 C0 1.34 0 0.68 0 0 Z " fill="#D5AE3A" transform="translate(304,172)"/>
<path d="M0 0 C0.33 0.66 0.66 1.32 1 2 C2.98 2 4.96 2 7 2 C7 2.99 7 3.98 7 5 C4.36 5 1.72 5 -1 5 C-0.67 3.35 -0.34 1.7 0 0 Z " fill="#CEA82D" transform="translate(341,350)"/>
<path d="M0 0 C0.99 0 1.98 0 3 0 C3.29296875 6.0546875 3.29296875 6.0546875 3 8 C2.01 8.66 1.02 9.32 0 10 C0 6.7 0 3.4 0 0 Z " fill="#CCAE33" transform="translate(145,202)"/>
<path d="M0 0 C1.32 0 2.64 0 4 0 C3.49396008 2.16874252 3.00016187 3.99967627 2 6 C-0.0625 6.625 -0.0625 6.625 -2 7 C-1.125 2.25 -1.125 2.25 0 0 Z " fill="#C7A936" transform="translate(157,271)"/>
<path d="M0 0 C2.64 0 5.28 0 8 0 C8 4.29 8 8.58 8 13 C7.67 13 7.34 13 7 13 C7 9.7 7 6.4 7 3 C4.69 2.34 2.38 1.68 0 1 C0 0.67 0 0.34 0 0 Z " fill="#C8AB4E" transform="translate(162,225)"/>
<path d="M0 0 C3.36591866 1.44253657 5.51047079 3.33264727 8 6 C7.67 6.66 7.34 7.32 7 8 C5.1875 7.8125 5.1875 7.8125 3 7 C0 2.82142857 0 2.82142857 0 0 Z " fill="#C8A639" transform="translate(269,208)"/>
<path d="M0 0 C2.97 0.495 2.97 0.495 6 1 C6 2.98 6 4.96 6 7 C5.01 7 4.02 7 3 7 C0 2.77777778 0 2.77777778 0 0 Z " fill="#CDA730" transform="translate(327,203)"/>
<path d="M0 0 C0.99 0.33 1.98 0.66 3 1 C2.67 1.99 2.34 2.98 2 4 C3.65 4 5.3 4 7 4 C6.67 5.65 6.34 7.3 6 9 C5.67 7.68 5.34 6.36 5 5 C3.35 5 1.7 5 0 5 C-0.5625 3.0625 -0.5625 3.0625 -1 1 C-0.67 0.67 -0.34 0.34 0 0 Z " fill="#CCA523" transform="translate(156,257)"/>
<path d="M0 0 C2.475 0.99 2.475 0.99 5 2 C3 5 3 5 0.375 5.6875 C-0.800625 5.8421875 -0.800625 5.8421875 -2 6 C-2 4.68 -2 3.36 -2 2 C-1.34 2 -0.68 2 0 2 C0 1.34 0 0.68 0 0 Z " fill="#D5B11F" transform="translate(327,175)"/>
<path d="M0 0 C2.5654594 2.5654594 2.54046087 4.47686668 3 8 C1.68 8 0.36 8 -1 8 C-1.04241723 5.66705225 -1.04092937 3.33297433 -1 1 C-0.67 0.67 -0.34 0.34 0 0 Z " fill="#CAA826" transform="translate(213,347)"/>
<path d="M0 0 C3.51716303 3.51716303 3.54676163 5.19567333 4 10 C2.68 9.67 1.36 9.34 0 9 C0 6.03 0 3.06 0 0 Z " fill="#C7A935" transform="translate(274,296)"/>
<path d="M0 0 C2.79872437 2.52788007 4.45773019 4.20411134 5 8 C2.36 7.67 -0.28 7.34 -3 7 C-3 6.67 -3 6.34 -3 6 C-1.35 6 0.3 6 2 6 C2 5.34 2 4.68 2 4 C1.34 4 0.68 4 0 4 C0 2.68 0 1.36 0 0 Z " fill="#C7A73C" transform="translate(268,281)"/>
<path d="M0 0 C1.32 0 2.64 0 4 0 C2.50902342 3.7952131 0.24299151 5.61042731 -3 8 C-3 6.35 -3 4.7 -3 3 C-2.01 3.33 -1.02 3.66 0 4 C0 2.68 0 1.36 0 0 Z " fill="#C7A63C" transform="translate(332,281)"/>
<path d="M0 0 C1.32 0.66 2.64 1.32 4 2 C-1.625 6 -1.625 6 -5 6 C-3.86695008 2.60085025 -2.87481525 1.94745549 0 0 Z " fill="#D8B34B" transform="translate(154,276)"/>
<path d="M0 0 C3.82097239 0.53069061 6.06171403 1.49701566 9 4 C8.34 4 7.68 4 7 4 C7 4.66 7 5.32 7 6 C3.63279613 4.60667426 2.0140476 3.0210714 0 0 Z " fill="#D1B339" transform="translate(240,272)"/>
<path d="M0 0 C2.31 0 4.62 0 7 0 C7 1.32 7 2.64 7 4 C4.36 3.67 1.72 3.34 -1 3 C-0.67 2.01 -0.34 1.02 0 0 Z " fill="#DBC233" transform="translate(144,197)"/>
<path d="M0 0 C2.8125 -0.3125 2.8125 -0.3125 6 0 C7.9375 2.375 7.9375 2.375 9 5 C8.67 5.66 8.34 6.32 8 7 C6.66382648 6.02471263 5.3311249 5.04466681 4 4.0625 C3.2575 3.51722656 2.515 2.97195312 1.75 2.41015625 C1.1725 1.94480469 0.595 1.47945312 0 1 C0 0.67 0 0.34 0 0 Z " fill="#C9A934" transform="translate(316,194)"/>
<path d="M0 0 C1.11375 0.495 1.11375 0.495 2.25 1 C5.13883312 2.22782871 5.13883312 2.22782871 9 2 C9 3.65 9 5.3 9 7 C5.18315774 5.44499019 2.80804268 2.96404505 0 0 Z " fill="#C6A535" transform="translate(245,287)"/>
<path d="M0 0 C4.7517398 0.43197635 6.92000054 1.32769295 10 5 C9.01 5.495 9.01 5.495 8 6 C6.0546875 5.0390625 6.0546875 5.0390625 3.875 3.625 C3.15054688 3.16351563 2.42609375 2.70203125 1.6796875 2.2265625 C1.12539062 1.82179688 0.57109375 1.41703125 0 1 C0 0.67 0 0.34 0 0 Z " fill="#CCA839" transform="translate(249,307)"/>
<path d="M0 0 C1.32 0.99 2.64 1.98 4 3 C3.67 3.66 3.34 4.32 3 5 C2.34 4.67 1.68 4.34 1 4 C0.67 4.66 0.34 5.32 0 6 C-0.99 5.67 -1.98 5.34 -3 5 C-3 4.01 -3 3.02 -3 2 C-2.34 2 -1.68 2 -1 2 C-0.67 1.34 -0.34 0.68 0 0 Z " fill="#D2AE35" transform="translate(177,345)"/>
<path d="M0 0 C1.625 1.6875 1.625 1.6875 3 4 C2.1875 6.75 2.1875 6.75 1 9 C0.67 8.34 0.34 7.68 0 7 C-0.99 6.67 -1.98 6.34 -3 6 C-2.01 4.02 -1.02 2.04 0 0 Z " fill="#D1A639" transform="translate(232,342)"/>
<path d="M0 0 C2.97 0.99 5.94 1.98 9 3 C9 3.33 9 3.66 9 4 C7.35 4 5.7 4 4 4 C3.67 4.66 3.34 5.32 3 6 C2.01 4.02 1.02 2.04 0 0 Z " fill="#CDA736" transform="translate(263,291)"/>
<path d="M0 0 C2.69082872 0.17635452 5.32851446 0.61835921 8 1 C6.75 2.5625 6.75 2.5625 5 4 C2.02602384 3.72963853 1.14553974 3.14553974 -1 1 C-0.67 0.67 -0.34 0.34 0 0 Z " fill="#DCBF1D" transform="translate(308,208)"/>
<path d="M0 0 C0.99 0.99 1.98 1.98 3 3 C1.625 5.5 1.625 5.5 0 8 C-0.66 8 -1.32 8 -2 8 C-1.47731534 5.23723823 -0.89130413 2.6739124 0 0 Z " fill="#CAB25A" transform="translate(144,298)"/>
<path d="M0 0 C0.33 0.99 0.66 1.98 1 3 C1.99 3.33 2.98 3.66 4 4 C2.3125 4.75 2.3125 4.75 0 5 C-2.75 3.0625 -2.75 3.0625 -5 1 C-3.35 0.67 -1.7 0.34 0 0 Z " fill="#CEAB1D" transform="translate(250,285)"/>
<path d="M0 0 C1.65 0 3.3 0 5 0 C4.34 1.32 3.68 2.64 3 4 C1.68 4 0.36 4 -1 4 C-0.67 2.68 -0.34 1.36 0 0 Z " fill="#CFA733" transform="translate(163,229)"/>
<path d="M0 0 C2.375 0.3125 2.375 0.3125 5 1 C5.66 1.99 6.32 2.98 7 4 C4.69 3.67 2.38 3.34 0 3 C0 2.01 0 1.02 0 0 Z " fill="#CCAD2A" transform="translate(314,210)"/>
<path d="M0 0 C0.66 1.65 1.32 3.3 2 5 C1.01 5.33 0.02 5.66 -1 6 C-2.32 4.35 -3.64 2.7 -5 1 C-2 0 -2 0 0 0 Z " fill="#D6B421" transform="translate(275,198)"/>
<path d="M0 0 C3.93673644 1.31224548 6.22719294 2.91910327 9 6 C5.85262818 5.30058404 2.97411124 4.23921302 0 3 C0 2.01 0 1.02 0 0 Z " fill="#C8A63A" transform="translate(247,294)"/>
<path d="M0 0 C2.31 0.33 4.62 0.66 7 1 C7.33 2.32 7.66 3.64 8 5 C4.62496331 3.8141763 2.35277269 2.72426311 0 0 Z " fill="#CBA438" transform="translate(254,294)"/>
<path d="M0 0 C2.5 2.3125 2.5 2.3125 5 5 C5 5.99 5 6.98 5 8 C3.0625 7.375 3.0625 7.375 1 6 C0.25 2.875 0.25 2.875 0 0 Z " fill="#C5A636" transform="translate(283,224)"/>
<path d="M0 0 C-0.33 0.99 -0.66 1.98 -1 3 C-3.375 3.1875 -3.375 3.1875 -6 3 C-6.66 2.01 -7.32 1.02 -8 0 C-5.13822943 -1.43088528 -3.06624227 -0.59991697 0 0 Z " fill="#D2AD49" transform="translate(162,192)"/>
<path d="M0 0 C5.66153846 1.47692308 5.66153846 1.47692308 7.375 4.125 C7.684375 5.053125 7.684375 5.053125 8 6 C4.74456771 5.65120368 3.98126893 4.97866739 1.75 2.4375 C1.1725 1.633125 0.595 0.82875 0 0 Z " fill="#C9AD34" transform="translate(266,177)"/>
<path d="M0 0 C0.33 0 0.66 0 1 0 C1 2.64 1 5.28 1 8 C-0.32 8.33 -1.64 8.66 -3 9 C-3 8.01 -3 7.02 -3 6 C-2.34 6 -1.68 6 -1 6 C-0.67 4.02 -0.34 2.04 0 0 Z " fill="#CDA31E" transform="translate(163,343)"/>
<path d="M0 0 C2.475 0.99 2.475 0.99 5 2 C4.01 2.99 3.02 3.98 2 5 C0 4 0 4 -1 1 C-0.67 0.67 -0.34 0.34 0 0 Z " fill="#CDA833" transform="translate(299,306)"/>
<path d="M0 0 C2.4375 0.375 2.4375 0.375 5 1 C5.33 1.66 5.66 2.32 6 3 C4.02 3.33 2.04 3.66 0 4 C0 2.68 0 1.36 0 0 Z " fill="#C8A42C" transform="translate(244,283)"/>
<path d="M0 0 C0.33 0 0.66 0 1 0 C1 2.97 1 5.94 1 9 C0.01 9 -0.98 9 -2 9 C-2 7.68 -2 6.36 -2 5 C-1.34 5 -0.68 5 0 5 C0 3.35 0 1.7 0 0 Z " fill="#CAA42C" transform="translate(172,239)"/>
<path d="M0 0 C1.65 1.65 3.3 3.3 5 5 C3.0625 5.5625 3.0625 5.5625 1 6 C0 5 0 5 -0.0625 2.4375 C-0.041875 1.633125 -0.02125 0.82875 0 0 Z " fill="#C8A52B" transform="translate(290,233)"/>
<path d="M0 0 C1 2 2 4 3 6 C0.11562221 4.70700306 -1.87219421 3.34058637 -4 1 C-2.68 0.67 -1.36 0.34 0 0 Z " fill="#C8AA36" transform="translate(248,206)"/>
<path d="M0 0 C2 1.8125 2 1.8125 4 4 C4 4.99 4 5.98 4 7 C1 6 1 6 -0.25 4.0625 C-0.4975 3.381875 -0.745 2.70125 -1 2 C-0.67 1.34 -0.34 0.68 0 0 Z " fill="#CBAF33" transform="translate(347,193)"/>
<path d="M0 0 C1.32 1.32 2.64 2.64 4 4 C2.02 4 0.04 4 -2 4 C-2.33 3.01 -2.66 2.02 -3 1 C-2.01 0.67 -1.02 0.34 0 0 Z " fill="#CEA42F" transform="translate(274,182)"/>
<path d="" fill="#FFFF00" transform="translate(0,0)"/>
<path d="" fill="#FFFF00" transform="translate(0,0)"/>
</svg>
