<svg width="18" height="18" viewBox="0 0 18 18" fill="none" xmlns="http://www.w3.org/2000/svg">
<path d="M8.9978 0.560303C5.58721 0.560303 2.8114 3.33721 2.8114 6.7478C2.8114 12.749 8.64954 17.3112 8.64954 17.3112C8.85463 17.4745 9.14537 17.4745 9.35046 17.3112C9.35046 17.3112 15.1897 12.749 15.1897 6.7478C15.1897 3.33721 12.4084 0.560303 8.9978 0.560303ZM8.9978 3.9364C10.5444 3.9364 11.8136 5.20117 11.8136 6.7478C11.8136 8.29446 10.5444 9.5625 8.9978 9.5625C7.45116 9.5625 6.18639 8.29446 6.1864 6.7478C6.18641 5.20117 7.45117 3.9364 8.9978 3.9364Z" fill="black"/>
</svg>
