<svg width="18" height="18" viewBox="0 0 18 18" fill="none" xmlns="http://www.w3.org/2000/svg">
<path d="M8.71725 10.6124C7.51501 9.62384 6.71226 8.40398 6.29023 7.70988L5.97543 7.1164C6.0855 6.9983 6.92489 6.09947 7.28865 5.61178C7.74577 4.99939 7.08301 4.44631 7.08301 4.44631C7.08301 4.44631 5.21813 2.58118 4.79312 2.21121C4.36812 1.84072 3.87888 2.04649 3.87888 2.04649C2.98561 2.62365 2.05958 3.12545 2.00403 5.53875C2.00196 7.7982 3.71714 10.1286 5.57191 11.9328C7.42967 13.9703 9.98036 16.0124 12.4464 16.0101C14.8594 15.955 15.3611 15.0291 15.9382 14.1359C15.9382 14.1359 16.1441 13.647 15.774 13.2216C15.4037 12.7964 13.5383 10.9311 13.5383 10.9311C13.5383 10.9311 12.9856 10.2682 12.3731 10.7257C11.9166 11.0669 11.0969 11.8259 10.8994 12.0099C10.8998 12.0106 9.52855 11.2796 8.71725 10.6124Z" fill="black"/>
</svg>
